<?xml version="1.0" encoding="UTF-8"?>
<svg id="Layer_2" data-name="Layer 2" xmlns="http://www.w3.org/2000/svg" xmlns:xlink="http://www.w3.org/1999/xlink" viewBox="0 0 440.99 101">
  <defs>
    <style>
      .cls-1 {
        clip-path: url(#clippath);
      }

      .cls-2, .cls-3 {
        fill: none;
      }

      .cls-2, .cls-3, .cls-4, .cls-5 {
        stroke-width: 0px;
      }

      .cls-6 {
        clip-path: url(#clippath-1);
      }

      .cls-7 {
        clip-path: url(#clippath-4);
      }

      .cls-8 {
        clip-path: url(#clippath-3);
      }

      .cls-9 {
        clip-path: url(#clippath-2);
      }

      .cls-10 {
        clip-path: url(#clippath-7);
      }

      .cls-11 {
        clip-path: url(#clippath-8);
      }

      .cls-12 {
        clip-path: url(#clippath-6);
      }

      .cls-13 {
        clip-path: url(#clippath-5);
      }

      .cls-14 {
        clip-path: url(#clippath-9);
      }

      .cls-3 {
        clip-rule: evenodd;
      }

      .cls-4 {
        fill: #612116;
      }

      .cls-5 {
        fill: #e04e39;
      }
    </style>
    <clipPath id="clippath">
      <path class="cls-3" d="m310.18,88.25c-2.38,1.96-4.74,3.72-7.06,5.25-.97.64-2,1.28-3.08,1.9-1.07.62-2.14,1.18-3.18,1.66-1.04.48-2.05.87-3.04,1.18-.97.3-1.88.45-2.7.45-.49,0-1.2-.11-2.14-.32-.94-.22-1.98-.65-3.09-1.31-1.12-.66-2.24-1.62-3.37-2.87-1.12-1.25-2.08-2.91-2.92-4.98-1.25,1.29-2.57,2.51-3.97,3.67-1.4,1.16-2.86,2.17-4.35,3.03-1.5.86-3.02,1.55-4.55,2.06-1.54.52-3.08.78-4.63.78-2.19,0-4.08-.45-5.68-1.36-1.6-.91-2.92-2.12-3.98-3.63-1.06-1.51-1.85-3.22-2.38-5.14-.52-1.92-.78-3.9-.78-5.95,0-2.18.28-4.39.83-6.63.55-2.23,1.36-4.4,2.42-6.5,1.06-2.1,2.23-4.29,3.53-6.58,1.3-2.29,3.01-4.37,5.15-6.25,2.14-1.88,4.33-3.29,6.58-4.25,2.26-.95,4.66-1.55,7.22-1.79.1-4.37.57-8.22,1.39-11.55.82-3.33,1.72-6.91,2.67-10.75.95-3.84,2.18-7.37,3.69-10.6,1.51-3.23,3.16-6.02,4.95-8.38,1.79-2.35,3.7-4.2,5.73-5.52,2.03-1.33,4.13-1.99,6.3-1.99,1.57,0,2.92.41,4.03,1.24,1.11.83,2.02,1.92,2.71,3.29.68,1.36,1.18,2.95,1.48,4.75.3,1.8.46,3.67.46,5.59,0,1.2-.01,2.43-.04,3.7-.1,4.83-.84,9.32-2.23,13.49-1.39,4.16-2.77,8.27-4.13,12.34-1.36,4.07-3.01,8.09-4.93,12.07-2.94,6.09-4.81,10.22-5.61,12.4-.17.48-.34,1.06-.52,1.74-.17.68-.34,1.42-.49,2.22-.16.8-.29,1.62-.4,2.45-.1.83-.16,1.64-.16,2.42,0,.99.05,1.92.17,2.81.11.88.3,1.68.56,2.37.26.7.61,1.25,1.06,1.66.43.41.98.61,1.64.61s1.34-.13,2.09-.38c.76-.25,1.56-.6,2.4-1.04.84-.44,1.69-.94,2.55-1.5.86-.56,1.69-1.13,2.5-1.71,1.85-1.36,3.79-2.9,5.8-4.63l1.51,10.52Zm-34.97-29.8c-2.22,1.08-4.2,2.52-5.93,4.3-1.73,1.78-3.18,4.13-4.34,7.05-1.15,2.92-2.04,5.43-2.65,7.53-.61,2.1-.91,4-.91,5.7,0,.53.07,1.05.22,1.58.15.53.43,1,.83,1.42.4.42.97.76,1.72,1.03.73.26,1.69.4,2.88.4.6,0,1.2-.13,1.79-.4.58-.27,1.15-.62,1.69-1.05.54-.43,1.06-.93,1.54-1.48.49-.55.94-1.13,1.33-1.72.94-1.37,1.81-2.92,2.58-4.65-.1-.47-.19-1.23-.25-2.27-.07-1.03-.12-2.61-.15-4.73-.04-2.12-.08-3.86-.1-5.22-.04-1.36-.06-2.59-.07-3.71-.02-1.12-.04-2.03-.08-2.75-.04-.71-.07-1.05-.1-1.02Zm23.81-34.43c.21-2.36.31-4.22.31-5.6,0-1.82-.16-3.08-.49-3.79-.32-.71-.79-1.06-1.41-1.06-1.1,0-2.09.68-2.98,2.04-.88,1.36-1.6,3.12-2.14,5.27-.54,2.15-1.12,4.49-1.76,7.01-.63,2.53-1.09,5-1.39,7.42-.28,2.42-.52,4.6-.7,6.55-.18,1.94-.31,3.32-.37,4.14-.15,1.67-.27,3.28-.36,4.83-.09,1.55-.16,2.97-.19,4.24-.04,1.28-.05,2.4-.05,3.35v2.71c1.87-4.48,3.6-8.95,5.17-13.39.65-1.9,1.3-3.87,1.95-5.93.64-2.06,1.28-4.1,1.9-6.13.63-2.03,1.17-4.03,1.6-6.02.43-1.99.74-3.87.91-5.66Z"/>
    </clipPath>
    <clipPath id="clippath-1">
      <rect class="cls-2" x="4.65" y="-.88" width="436.63" height="101.17"/>
    </clipPath>
    <clipPath id="clippath-2">
      <path class="cls-3" d="m360.32,86.24c-.77,1.09-1.81,2.36-3.1,3.83-1.3,1.46-2.75,2.86-4.36,4.18-1.62,1.33-3.35,2.45-5.2,3.37-1.85.92-3.7,1.38-5.55,1.38-2.23,0-4.1-.71-5.59-2.12-1.49-1.42-2.78-3.47-3.87-6.17-.82.93-1.81,1.88-3,2.85-1.19.97-2.49,1.84-3.89,2.62-1.41.78-2.88,1.42-4.4,1.92-1.53.5-3.06.75-4.58.75-1.62,0-3.19-.33-4.71-.99-1.54-.66-2.89-1.61-4.06-2.85-1.18-1.24-2.12-2.75-2.83-4.53-.71-1.78-1.06-3.79-1.06-6.03,0-2.51.36-5.09,1.06-7.74.71-2.65,1.81-5.51,3.3-8.6,1.48-3.08,3.09-5.75,4.79-7.99,1.72-2.24,3.58-4.21,5.61-5.88,2.03-1.68,4.17-3.01,6.42-4,2.25-.99,4.53-1.48,6.87-1.48.78,0,1.39.15,1.83.46.44.31.8.66,1.09,1.05.28.39.56.77.83,1.15.27.37.61.65,1.02.82.41.17.82.28,1.24.33.42.05.85.08,1.29.08.37,0,.76,0,1.15-.03.39-.02.76-.02,1.14-.02.51,0,.98.05,1.42.15.43.1.82.32,1.16.66.34.34.6.81.79,1.43.18.61.28,1.45.28,2.5,0,1.61-.17,3.39-.51,5.35-.33,1.96-.72,3.97-1.15,6.02-.44,2.06-.93,4.4-1.48,7.03-.55,2.63-.83,4.85-.83,6.65,0,1.54.14,2.75.43,3.61.29.87.9,1.3,1.84,1.3.7,0,1.45-.18,2.22-.52.77-.35,1.56-.81,2.35-1.37.79-.57,1.58-1.21,2.38-1.93.79-.72,1.54-1.46,2.24-2.23,1.65-1.8,3.31-3.83,5-6.1l2.42,11.11Zm-43.29-3.95c0,.87.05,1.71.17,2.52.12.82.33,1.54.64,2.19.3.64.71,1.16,1.21,1.56.51.4,1.15.6,1.92.6,1.25,0,2.38-.54,3.39-1.62,1.01-1.08,1.89-2.39,2.63-3.91.74-1.52,1.34-3.1,1.79-4.73.46-1.63.75-2.98.88-4.06l3.76-16.4c-1.38,0-2.72.34-4.03,1.03-1.31.68-2.55,1.61-3.71,2.78-1.16,1.17-2.23,2.5-3.2,4-.98,1.5-1.94,3.35-2.88,5.55-.94,2.2-1.6,4.14-1.99,5.8-.39,1.67-.58,3.24-.58,4.7Z"/>
    </clipPath>
    <clipPath id="clippath-3">
      <rect class="cls-2" x="4.65" y="-.88" width="436.63" height="101.17"/>
    </clipPath>
    <clipPath id="clippath-4">
      <path class="cls-3" d="m386.97,88c-1.21,1.11-2.72,2.3-4.52,3.56-1.8,1.26-3.74,2.42-5.82,3.48-2.09,1.06-4.21,1.94-6.39,2.65-2.17.71-4.23,1.06-6.18,1.06-1.75,0-3.22-.24-4.42-.73-1.19-.49-2.16-1.17-2.9-2.04-.73-.87-1.27-1.94-1.58-3.2-.32-1.26-.49-2.65-.49-4.16,0-2.12.24-4.59.71-7.42.97-5.85,1.59-9.13,1.87-9.85.46-1.44,6.37-32.66,7.74-37.59,1.28-4.02,2.07-6.63,2.37-7.84.17-.85.62-1.62,1.39-2.3.7-.61,1.48-1.11,2.35-1.5.88-.39,1.78-.68,2.73-.87.94-.19,1.79-.28,2.56-.28,1.39,0,2.32.26,2.83.78.49.52.74,1.22.74,2.09,0,.74-.17,1.79-.52,3.14-.34,1.35-.73,2.89-1.18,4.62-.44,1.73-1.09,3.95-1.96,6.67-.87,2.72-6.45,33.08-6.77,34.99-.31,1.92-.72,3.82-1.2,5.71-.49,1.89-.73,3.61-.73,5.16s.17,2.71.5,3.61c.34.89,1.03,1.34,2.07,1.34,1.21,0,2.56-.42,4.04-1.26,1.48-.84,2.98-1.86,4.49-3.05,1.51-1.19,2.99-2.43,4.44-3.71,1.45-1.28,2.73-2.37,3.84-3.28v10.24Z"/>
    </clipPath>
    <clipPath id="clippath-5">
      <rect class="cls-2" x="4.65" y="-.88" width="436.63" height="101.17"/>
    </clipPath>
    <clipPath id="clippath-6">
      <path class="cls-3" d="m440.98,81.83c.06-1.75-.65-3.5-2.39-4.26-2.13-.93-3.85.22-5.11,1.81-.81,1.01-1.68,1.97-2.61,2.87-2.05,1.97-5.21,5.02-8.24,5.02-.94,0-1.55-.43-1.84-1.3-.29-.87-.43-2.07-.43-3.61,0-1.8.28-4.02.83-6.65.56-2.63,1.05-4.97,1.48-7.03.43-2.06.82-4.06,1.15-6.02.33-1.96.51-3.74.51-5.35,0-1.05-.09-1.89-.28-2.5-.19-.61-.44-1.09-.78-1.43-.34-.34-.73-.56-1.17-.66-.44-.1-.91-.15-1.42-.15-.37,0-.75.01-1.14.03-.39.02-.77.02-1.14.02-.44,0-.87-.02-1.29-.08-.42-.05-.84-.16-1.24-.33-.41-.17-.74-.44-1.01-.81-.27-.37-.55-.76-.84-1.15-.29-.39-.65-.74-1.09-1.04-.44-.31-1.05-.46-1.83-.46-2.33,0-4.62.49-6.87,1.48-2.25.99-4.39,2.32-6.42,3.99-2.03,1.68-3.9,3.64-5.61,5.88-1.71,2.25-3.31,4.91-4.79,7.99-1.49,3.08-2.59,5.95-3.3,8.59-.71,2.65-1.07,5.22-1.07,7.74,0,2.24.35,4.25,1.06,6.03.71,1.78,1.65,3.29,2.82,4.53,1.18,1.24,2.53,2.19,4.06,2.85,1.53.66,3.1.99,4.72.99,1.52,0,3.05-.25,4.57-.75,1.53-.5,2.99-1.14,4.4-1.92,1.4-.78,2.7-1.66,3.89-2.62,1.18-.96,2.19-1.91,3-2.84,1.08,2.7,2.37,4.75,3.86,6.16,1.49,1.41,3.35,2.12,5.58,2.12,1.85,0,3.7-.46,5.55-1.38,1.85-.92,3.58-2.04,5.19-3.36,1.61-1.33,3.07-2.72,4.36-4.18,1.69-1.91,3.58-3.86,4.49-6.3.22-.6.36-1.26.38-1.92Zm-32.4-7.01c-.14,1.08-.43,2.44-.88,4.06-.45,1.62-1.05,3.2-1.79,4.72-.74,1.52-1.62,2.83-2.63,3.91-1.01,1.08-2.14,1.63-3.39,1.63-.77,0-1.41-.2-1.92-.6-.51-.4-.91-.92-1.21-1.56-.3-.64-.51-1.37-.63-2.18-.12-.82-.18-1.66-.18-2.52,0-1.47.19-3.04.58-4.7.39-1.67,1.05-3.6,1.99-5.8.94-2.2,1.9-4.05,2.87-5.55.98-1.5,2.04-2.83,3.2-4,1.16-1.17,2.4-2.09,3.71-2.78,1.31-.68,2.65-1.02,4.03-1.02l-3.76,16.39Z"/>
    </clipPath>
    <clipPath id="clippath-7">
      <rect class="cls-2" x="4.65" y="-.88" width="436.63" height="101.17"/>
    </clipPath>
    <clipPath id="clippath-8">
      <path class="cls-3" d="m379.86,44.51c.26-.13.71-.17,1.34-.13.63.04,1.36.05,2.18.03.82-.02,1.72-.03,2.68-.05.95-.02,1.88-.04,2.78-.05.9-.01,1.74-.02,2.52-.02.78,0,1.42,0,1.93,0,.6,0,1.05.36,1.36,1.06.3.7.48,1.59.54,2.68.06,1.26-.19,2.3-.75,3.12-.55.82-1.19,1.25-1.91,1.29l-17.24.87-14.95-.87c-.91-.1-1.62-.21-2.12-.32-.5-.11-1.04-.21-1.6-.31-.57-.1-1.28-.21-2.14-.32-.87-.11-2.12-.23-3.76-.38-.73-.08-1.3-.26-1.7-.56-.4-.3-.71-.66-.91-1.08-.2-.42-.33-.87-.38-1.34-.05-.47-.09-.87-.1-1.21-.03-.53.25-.95.82-1.26.57-.31,1.31-.56,2.22-.74.91-.19,1.91-.31,3.01-.39,1.09-.07,2.14-.11,3.15-.13,1.01-.02,1.91-.04,2.71-.06.79-.02,1.34-.07,1.64-.16l18.69.33Z"/>
    </clipPath>
    <clipPath id="clippath-9">
      <rect class="cls-2" x="4.65" y="-.88" width="436.63" height="101.17"/>
    </clipPath>
  </defs>
  <g id="Layer_1-2" data-name="Layer 1">
    <g id="Layer_5" data-name="Layer 5">
      <g>
        <path class="cls-5" d="m14.06,84.82c1.36,4.51,4.14,9.76,7.65,12.37,8.31,6.34,24.27-.58,24.27-.58,0,0,4.59-2.14,6.54-3.68,0,0-.41.97-.25,1.74s2.75,4.7,5.24,5.16c4.77.88,6.76-.01,15.08-20.25,4.88-10.34,5.21-9.78,5.21-9.78.55-.12-3.22,19.68-1.78,25.02,1.44,5.35,7.76,4.79,7.76,4.79,0,0,3.44.66,6.21-9.13,2.77-9.78,8.1-20.57,8.1-20.57.66,0-1.04,18.5,2.5,24.95,2.54,4.63,10.88,5.65,14.63,3.91l6.77-2.28c1.12,2.52,4.36,5.43,15.82,3.7,15.73-2.37,25.22-7.07,30.06-9.84,1.05,2.04,5.61,9.96,16.69,10.39,8.19.31,16.54-2.91,21.7-6.3l-.15,1.79c.71,1.44,4.04,3.68,6.05,4.51,5.11,2.11,8.54-9.77,8.54-9.77l8.53-23.6c.78,0,1.22,14,9.65,16.45,8.42,2.45,17.63-5.14,17.63-5.14,0,0,1.55-.1,1.1-4.55-.45-4.45-6.42-1.26-6.42-1.26,0,0-1.57,1.52-7.23.96-5.66-.56-5.9-10.54-4.35-15.81,1.56-5.26.04-6.45-3.29-7.42-3.32-.97-5.77,1.77-5.77,1.77,0,0-5.1,5.67-7.54,12.91h0c.99,0,3.66-11.88.85-14.77-.66-1.44-9.34-2.65-9.38.64-.05,4.09-2.13,21.66-6.22,27.81,0,0-9.53,8.12-17.84,9.45-8.32,1.34-10.87-3.61-10.87-3.61,0,0,21.06-8.88,22.39-24.75,1.52-18.08-17.96-11.25-20.21-9.93-2.07,1.21-12.12,7.62-15.1,24.72-.47,2.77-.07,5.98-.07,5.98,0,0-4.48,2.88-11.04,4.35,0,0,10.3-19.63,5.35-29.47-2.56-5.09-10.55-10.5-16.96-5.95-1.7,1.21,7.04-6.8,7.63-28.63.13-4.71.46-11.8-2.48-16.2-3.33-4.99-8.52-6.79-14.01-2.49-13.95,10.94-16.15,78.08-16.15,78.08,0,0-3.44,7.62-8.1,7.64-4.66.02-2.22-11.9-2.22-11.9,0,0,3.1-18.46,2.89-21.57-.23-3.11-.45-4.78-4.11-5.89-3.66-1.11-7.65,3.56-7.65,3.56,0,0-10.53,16.01-11.41,18.46l-.56,1.01-.55-.67s7.42-21.8.33-22.13c-7.09-.34-11.75,7.79-11.75,7.79,0,0-8.1,13.57-8.43,15.12l-.55-.67s3.32-15.79,2.66-19.69c-.67-3.89-4.33-3.11-4.33-3.11,0,0-4.65-.56-5.88,2.45-1.22,3-2.22,19.91-6.05,26.57,0,0-5.92,10-19.45,11.13-7.64.12-6.86-6.04-6.86-6.04,0,0,28.48-6.65,20.39-27.47-2.72-6.7-7.36-6.58-13.02-6.47-5.66.12-12.73,3.72-17.28,13.95-2.18,4.88-2.96,7.75-3.41,11.25,0,0-4.06-.22-7.39-2.39-3.33-2.18-4.03,0-4.03,0,0,0-4.74,7.02-.2,8.8,4.55,1.78,11.64,2.61,11.64,2.61h0m23.92-23.81c2.99,2.89,1.88,7.35-3.77,11.24-5.65,3.9-9.23,3.88-9.23,3.88.34-13.23,10.02-18.02,13-15.12Zm98.8-41.47c1.22-4.05,3.68-7.3,4.35-3.79,2.66,23.02-11.12,45.59-11.12,45.59.87-18.23,5.55-37.75,6.77-41.79Zm5.65,68.15c-9.71,5.74-12.42-.32-12.42-.32,0,0,4.34-18.99,11.74-23.87,4.95-3.27,9.4-2.21,10.78.6,1.39,2.81-.79,7.64-2.42,12.3-1.51,4.32-5.33,9.9-7.69,11.3h0Zm38.91-23.35c4.94-7.76,10.39-7.28,11.38-5.15,1.95,4.2-1.13,7.39-2.51,9.11-4.95,6.16-13.39,10.08-13.39,10.08,0,0-.42-6.28,4.52-14.04Z"/>
        <path class="cls-5" d="m230.84,93.72v-1.6h1.01c.14,0,.28.02.43.03.15.02.29.06.41.11.13.05.22.13.3.22.08.1.12.23.12.39,0,.37-.11.61-.33.71-.27.1-.56.15-.86.14h-1.08Zm-1.2-2.53v6.07h1.2v-2.6h.75l1.48,2.6h1.26l-1.62-2.66c.21-.02.42-.07.63-.14.19-.07.36-.16.5-.29.15-.13.25-.29.34-.49.09-.23.14-.47.13-.72,0-.66-.21-1.12-.62-1.39-.41-.27-1-.41-1.76-.41h-2.28,0Zm-1.92,3.04c0-.62.1-1.19.31-1.71.21-.51.5-.96.87-1.34.37-.39.82-.7,1.32-.9s1.03-.31,1.57-.31c.54,0,1.07.1,1.57.31.49.21.94.51,1.32.9.79.82,1.22,1.91,1.2,3.05,0,.62-.11,1.19-.32,1.72-.21.5-.5.96-.88,1.35-.37.39-.82.7-1.32.9-.5.21-1.03.31-1.57.31-.57,0-1.1-.11-1.6-.32-.48-.21-.93-.51-1.29-.89-.37-.39-.67-.85-.87-1.35-.22-.55-.32-1.13-.32-1.72h0Zm-1.49,0c0,.83.16,1.58.46,2.25.31.67.71,1.25,1.22,1.72.51.47,1.1.83,1.78,1.09s1.37.38,2.1.38,1.44-.13,2.11-.38c.67-.25,1.26-.61,1.78-1.09.51-.47.92-1.04,1.22-1.72.3-.67.45-1.41.45-2.25s-.15-1.57-.45-2.23c-.29-.64-.7-1.22-1.22-1.7-.52-.48-1.12-.85-1.78-1.1-.67-.26-1.37-.39-2.11-.39-1.43,0-2.81.52-3.88,1.48-.54.5-.97,1.11-1.26,1.79-.29.68-.43,1.41-.42,2.15h0Z"/>
      </g>
    </g>
    <g>
      <g class="cls-1">
        <g class="cls-6">
          <rect class="cls-4" x="235.96" y="-11.45" width="87.53" height="123.5"/>
        </g>
      </g>
      <g class="cls-9">
        <g class="cls-8">
          <rect class="cls-4" x="290.8" y="35.43" width="82.83" height="76.88"/>
        </g>
      </g>
      <g class="cls-7">
        <g class="cls-13">
          <rect class="cls-4" x="341.36" y="7.64" width="58.92" height="104.42"/>
        </g>
      </g>
      <g class="cls-12">
        <g class="cls-10">
          <rect class="cls-4" x="369.74" y="35.43" width="84.56" height="76.84"/>
        </g>
      </g>
      <g class="cls-11">
        <g class="cls-14">
          <rect class="cls-4" x="334.3" y="30.86" width="74.21" height="35.76"/>
        </g>
      </g>
    </g>
  </g>
</svg>