<?xml version="1.0" encoding="UTF-8"?>
<svg id="Layer_2" data-name="Layer 2" xmlns="http://www.w3.org/2000/svg" xmlns:xlink="http://www.w3.org/1999/xlink" viewBox="0 0 362.65 101">
  <defs>
    <style>
      .cls-1 {
        clip-path: url(#clippath);
      }

      .cls-2, .cls-3 {
        fill: none;
      }

      .cls-2, .cls-3, .cls-4, .cls-5 {
        stroke-width: 0px;
      }

      .cls-6 {
        clip-path: url(#clippath-1);
      }

      .cls-7 {
        clip-path: url(#clippath-4);
      }

      .cls-8 {
        clip-path: url(#clippath-3);
      }

      .cls-9 {
        clip-path: url(#clippath-2);
      }

      .cls-10 {
        clip-path: url(#clippath-7);
      }

      .cls-11 {
        clip-path: url(#clippath-6);
      }

      .cls-12 {
        clip-path: url(#clippath-5);
      }

      .cls-3 {
        clip-rule: evenodd;
      }

      .cls-4 {
        fill: #612116;
      }

      .cls-5 {
        fill: #e04e39;
      }
    </style>
    <clipPath id="clippath">
      <path class="cls-3" d="m266.56,99c-3.06,0-5.75-.56-8.06-1.68-2.31-1.12-4.25-2.63-5.81-4.51-1.56-1.89-2.75-4.07-3.54-6.54-.8-2.48-1.2-5.06-1.2-7.73,0-1.92.33-4.22,1-6.89.66-2.68,1.39-5.02,2.17-7.01.78-2,1.74-3.91,2.89-5.73,1.15-1.82,2.47-3.41,3.99-4.78,1.51-1.37,3.2-2.46,5.06-3.27,1.86-.81,3.9-1.22,6.13-1.22,2,0,3.86.29,5.57.87,1.71.58,3.16,1.38,4.38,2.41,1.21,1.02,2.16,2.24,2.85,3.64.68,1.41,1.03,2.92,1.03,4.54,0,1.12-.16,2.23-.48,3.32-.32,1.09-.95,2.37-1.88,3.84-.93,1.47-1.83,2.47-2.71,3-.88.53-1.87.79-2.98.79-1.67,0-2.75-.41-3.24-1.24-.8-1.29-1.05-2.43-.76-3.42.1-.53.4-1.75.89-3.67.07-.26.08-.86.05-1.79,0-.79-.08-1.45-.25-1.98-.16-.53-.52-.79-1.08-.79-1.35,0-2.5.32-3.46.97-.96.65-1.77,1.49-2.44,2.53-.68,1.04-1.34,2.51-2,4.41-.66,1.9-1.13,3.49-1.41,4.78-.28,1.29-.45,2.52-.52,3.69-.07,1.17-.1,2.16-.1,2.95,0,1.19.11,2.43.32,3.72.21,1.29.64,2.47,1.28,3.55.64,1.07,1.47,1.97,2.49,2.68,1.02.71,2.34,1.06,3.95,1.06s3.34-.49,5.26-1.46c1.92-.98,3.84-2.21,5.77-3.7,1.93-1.49,3.78-3.12,5.53-4.91,1.75-1.79,3.25-3.47,4.51-5.06l3.42,5.75c-2.48,3.54-5.16,6.69-8.03,9.47-1.22,1.19-2.55,2.35-3.99,3.47-1.44,1.12-2.94,2.12-4.51,3-1.57.88-3.21,1.59-4.91,2.13-1.7.55-3.43.82-5.17.82"/>
    </clipPath>
    <clipPath id="clippath-1">
      <rect class="cls-2" x="6.99" y="1.16" width="358.03" height="101.92"/>
    </clipPath>
    <clipPath id="clippath-2">
      <path class="cls-3" d="m302.21,99c-1.78,0-3.43-.77-4.96-2.32-1.53-1.55-2.87-3.62-4-6.22-1.14-2.6-2.02-5.62-2.67-9.05-.64-3.43-.96-7.04-.96-10.81,0-3.24.48-7.57,1.43-12.99.95-5.42,1.43-8.12,1.43-8.12,0,0,.72-2.7,2.17-8.11,1.44-5.41,2.89-9.75,4.35-13.01,1.45-3.27,3.03-6.32,4.73-9.16,1.71-2.84,3.49-5.31,5.36-7.42,1.87-2.11,3.82-3.76,5.86-4.97,2.04-1.21,4.11-1.81,6.21-1.81,1.53,0,2.79.29,3.79.88,1,.58,1.78,1.36,2.35,2.31.57.96.97,2.04,1.2,3.26.23,1.21.35,2.45.35,3.71,0,3.12-.37,6.31-1.11,9.55-.74,3.24-1.74,6.5-2.99,9.77-1.26,3.28-2.71,6.56-4.36,9.85-1.65,3.29-3.37,6.56-5.15,9.8-1.79,3.24-3.58,6.43-5.39,9.57-1.8,3.14-3.47,6.21-4.99,9.21-.17.33-.34.77-.52,1.3-.18.53-.35,1.11-.52,1.73-.17.62-.33,1.27-.5,1.98-.17.7-.3,1.38-.4,2.05v.7c0,.87.09,1.71.27,2.52.18.82.41,1.55.67,2.2.26.65.55,1.17.84,1.55.3.38.58.58.85.58.64,0,1.38-.13,2.21-.4.83-.27,1.71-.62,2.64-1.07.93-.45,1.89-.97,2.87-1.55.98-.58,1.93-1.18,2.84-1.77,2.13-1.4,9.9-7.09,12.24-8.92l2.87,11.87c-3.03,2.01-10.05,6.45-13.01,8.02-1.29.66-2.63,1.31-4.01,1.96-1.38.64-2.77,1.22-4.16,1.72-1.39.5-2.76.9-4.08,1.2-1.33.3-2.57.45-3.73.45m.05-39.3c1.49-2.67,3.07-5.67,4.75-9,1.67-3.33,3.26-6.77,4.75-10.3,1.49-3.53,2.79-7.06,3.88-10.58,1.09-3.51,1.79-6.79,2.09-9.82,0-.97-.02-1.79-.07-2.47-.05-.68-.2-1.03-.45-1.03-.91,0-1.89.63-2.94,1.89-1.05,1.25-2.1,2.95-3.15,5.1-1.05,2.14-2.3,5.63-3.76,10.45-1.46,4.83-2.18,7.24-2.18,7.24,0,0-.44,2.24-1.33,6.72-.89,4.48-1.42,8.41-1.59,11.8"/>
    </clipPath>
    <clipPath id="clippath-3">
      <rect class="cls-2" x="6.99" y="1.16" width="358.03" height="101.92"/>
    </clipPath>
    <clipPath id="clippath-4">
      <path class="cls-3" d="m362.37,79.81c-.19-.41-.46-.77-.79-1.08-.33-.31-.7-.57-1.11-.77-.41-.2-.83-.33-1.24-.4-.42-.07-.81-.06-1.17.03-.36.09-.64.28-.9.51-.52.46-1.05.96-1.58,1.45-.88.74-1.22,1.09-2.29,2.04-1.42,1.26-2.87,2.47-4.36,3.64-1.49,1.17-2.96,2.17-4.41,3-1.46.83-2.78,1.24-3.97,1.24-1.03,0-1.7-.44-2.03-1.31-.33-.87-.5-2.06-.5-3.54s.24-3.21.71-5.07c.48-1.86.87-3.73,1.18-5.62.31-1.88.89-4.16,1.75-6.83.85-2.67,1.49-4.85,1.93-6.55.43-1.7.82-3.21,1.16-4.54.34-1.33.51-2.35.51-3.08,0-.86-.24-1.55-.73-2.06-.49-.51-1.41-.77-2.78-.77-.75,0-1.58.09-2.51.27-.93.19-1.82.47-2.68.85-.86.39-1.63.88-2.31,1.48-.75.67-1.2,1.42-1.37,2.26-.29,1.19-1.07,3.76-2.32,7.71-1.35,4.85-2.25,7.97-2.7,9.38-.27.71-.88,3.93-1.84,9.68-.46,2.78-.69,5.21-.69,7.29,0,1.49.16,2.85.47,4.09.32,1.24.84,2.29,1.56,3.15.73.86,1.68,1.53,2.85,2.01,1.17.48,2.62.72,4.34.72,1.92,0,3.94-.35,6.07-1.04,2.13-.69,4.22-1.56,6.27-2.6,2.05-1.04,3.96-2.18,5.73-3.42,1.55-1.08,2.83-2.1,3.94-3.07,1.34-.95,2.66-2.24,4.42-4.22.58-.65,1.03-1.23,1.29-1.81.26-.57.39-1.12.4-1.63,0-.51-.08-.98-.28-1.39"/>
    </clipPath>
    <clipPath id="clippath-5">
      <rect class="cls-2" x="6.99" y="1.16" width="358.03" height="101.92"/>
    </clipPath>
    <clipPath id="clippath-6">
      <path class="cls-3" d="m343.41,44c1.68,0,3.13-.26,4.34-.78,1.2-.52,2.2-1.19,3-2.03.79-.84,1.37-1.79,1.74-2.85.36-1.07.54-2.17.54-3.3,0-1.23-.22-2.3-.67-3.2-.44-.9-1.05-1.63-1.81-2.18-.76-.55-1.65-.96-2.68-1.23-1.03-.27-2.12-.4-3.27-.4-1.85,0-3.39.29-4.64.88-1.24.58-2.23,1.3-2.97,2.15-.74.85-1.28,1.76-1.61,2.73-.33.97-.5,1.83-.5,2.6,0,2.3.69,4.15,2.08,5.53,1.39,1.39,3.54,2.08,6.44,2.08"/>
    </clipPath>
    <clipPath id="clippath-7">
      <rect class="cls-2" x="6.99" y="1.16" width="358.03" height="101.92"/>
    </clipPath>
  </defs>
  <g id="Layer_1-2" data-name="Layer 1">
    <g id="Layer_5" data-name="Layer 5">
      <g>
        <path class="cls-5" d="m14.06,84.82c1.36,4.51,4.14,9.76,7.65,12.37,8.31,6.34,24.27-.58,24.27-.58,0,0,4.59-2.14,6.54-3.68,0,0-.41.97-.25,1.74s2.75,4.7,5.24,5.16c4.77.88,6.76-.01,15.08-20.25,4.88-10.34,5.21-9.78,5.21-9.78.55-.12-3.22,19.68-1.78,25.02,1.44,5.35,7.76,4.79,7.76,4.79,0,0,3.44.66,6.21-9.13,2.77-9.78,8.1-20.57,8.1-20.57.66,0-1.04,18.5,2.5,24.95,2.54,4.63,10.88,5.65,14.63,3.91l6.77-2.28c1.12,2.52,4.36,5.43,15.82,3.7,15.73-2.37,25.22-7.07,30.06-9.84,1.05,2.04,5.61,9.96,16.69,10.39,8.19.31,16.54-2.91,21.7-6.3l-.15,1.79c.71,1.44,4.04,3.68,6.05,4.51,5.11,2.11,8.54-9.77,8.54-9.77l8.53-23.6c.78,0,1.22,14,9.65,16.45,8.42,2.45,17.63-5.14,17.63-5.14,0,0,1.55-.1,1.1-4.55-.45-4.45-6.42-1.26-6.42-1.26,0,0-1.57,1.52-7.23.96-5.66-.56-5.9-10.54-4.35-15.81,1.56-5.26.04-6.45-3.29-7.42-3.32-.97-5.77,1.77-5.77,1.77,0,0-5.1,5.67-7.54,12.91h0c.99,0,3.66-11.88.85-14.77-.66-1.44-9.34-2.65-9.38.64-.05,4.09-2.13,21.66-6.22,27.81,0,0-9.53,8.12-17.84,9.45-8.32,1.34-10.87-3.61-10.87-3.61,0,0,21.06-8.88,22.39-24.75,1.52-18.08-17.96-11.25-20.21-9.93-2.07,1.21-12.12,7.62-15.1,24.72-.47,2.77-.07,5.98-.07,5.98,0,0-4.48,2.88-11.04,4.35,0,0,10.3-19.63,5.35-29.47-2.56-5.09-10.55-10.5-16.96-5.95-1.7,1.21,7.04-6.8,7.63-28.63.13-4.71.46-11.8-2.48-16.2-3.33-4.99-8.52-6.79-14.01-2.49-13.95,10.94-16.15,78.08-16.15,78.08,0,0-3.44,7.62-8.1,7.64-4.66.02-2.22-11.9-2.22-11.9,0,0,3.1-18.46,2.89-21.57-.23-3.11-.45-4.78-4.11-5.89-3.66-1.11-7.65,3.56-7.65,3.56,0,0-10.53,16.01-11.41,18.46l-.56,1.01-.55-.67s7.42-21.8.33-22.13c-7.09-.34-11.75,7.79-11.75,7.79,0,0-8.1,13.57-8.43,15.12l-.55-.67s3.32-15.79,2.66-19.69c-.67-3.89-4.33-3.11-4.33-3.11,0,0-4.65-.56-5.88,2.45-1.22,3-2.22,19.91-6.05,26.57,0,0-5.92,10-19.45,11.13-7.64.12-6.86-6.04-6.86-6.04,0,0,28.48-6.65,20.39-27.47-2.72-6.7-7.36-6.58-13.02-6.47-5.66.12-12.73,3.72-17.28,13.95-2.18,4.88-2.96,7.75-3.41,11.25,0,0-4.06-.22-7.39-2.39-3.33-2.18-4.03,0-4.03,0,0,0-4.74,7.02-.2,8.8,4.55,1.78,11.64,2.61,11.64,2.61h0m23.92-23.81c2.99,2.89,1.88,7.35-3.77,11.24-5.65,3.9-9.23,3.88-9.23,3.88.34-13.23,10.02-18.02,13-15.12Zm98.8-41.47c1.22-4.05,3.68-7.3,4.35-3.79,2.66,23.02-11.12,45.59-11.12,45.59.87-18.23,5.55-37.75,6.77-41.79Zm5.65,68.15c-9.71,5.74-12.42-.32-12.42-.32,0,0,4.34-18.99,11.74-23.87,4.95-3.27,9.4-2.21,10.78.6,1.39,2.81-.79,7.64-2.42,12.3-1.51,4.32-5.33,9.9-7.69,11.3h0Zm38.91-23.35c4.94-7.76,10.39-7.28,11.38-5.15,1.95,4.2-1.13,7.39-2.51,9.11-4.95,6.16-13.39,10.08-13.39,10.08,0,0-.42-6.28,4.52-14.04Z"/>
        <path class="cls-5" d="m230.84,93.72v-1.6h1.01c.14,0,.28.02.43.03.15.02.29.06.41.11.13.05.22.13.3.22.08.1.12.23.12.39,0,.37-.11.61-.33.71-.27.1-.56.15-.86.14h-1.08Zm-1.2-2.53v6.07h1.2v-2.6h.75l1.48,2.6h1.26l-1.62-2.66c.21-.02.42-.07.63-.14.19-.07.36-.16.5-.29.15-.13.25-.29.34-.49.09-.23.14-.47.13-.72,0-.66-.21-1.12-.62-1.39-.41-.27-1-.41-1.76-.41h-2.28,0Zm-1.92,3.04c0-.62.1-1.19.31-1.71.21-.51.5-.96.87-1.34.37-.39.82-.7,1.32-.9s1.03-.31,1.57-.31c.54,0,1.07.1,1.57.31.49.21.94.51,1.32.9.79.82,1.22,1.91,1.2,3.05,0,.62-.11,1.19-.32,1.72-.21.5-.5.96-.88,1.35-.37.39-.82.7-1.32.9-.5.21-1.03.31-1.57.31-.57,0-1.1-.11-1.6-.32-.48-.21-.93-.51-1.29-.89-.37-.39-.67-.85-.87-1.35-.22-.55-.32-1.13-.32-1.72h0Zm-1.49,0c0,.83.16,1.58.46,2.25.31.67.71,1.25,1.22,1.72.51.47,1.1.83,1.78,1.09s1.37.38,2.1.38,1.44-.13,2.11-.38c.67-.25,1.26-.61,1.78-1.09.51-.47.92-1.04,1.22-1.72.3-.67.45-1.41.45-2.25s-.15-1.57-.45-2.23c-.29-.64-.7-1.22-1.22-1.7-.52-.48-1.12-.85-1.78-1.1-.67-.26-1.37-.39-2.11-.39-1.43,0-2.81.52-3.88,1.48-.54.5-.97,1.11-1.26,1.79-.29.68-.43,1.41-.42,2.15h0Z"/>
      </g>
    </g>
    <g>
      <g class="cls-1">
        <g class="cls-6">
          <rect class="cls-4" x="234.87" y="36.55" width="71.36" height="75.51"/>
        </g>
      </g>
      <g class="cls-9">
        <g class="cls-8">
          <rect class="cls-4" x="276.55" y="-8.07" width="67.72" height="120.13"/>
        </g>
      </g>
      <g class="cls-7">
        <g class="cls-12">
          <rect class="cls-4" x="312.24" y="37.04" width="63.47" height="75.02"/>
        </g>
      </g>
      <g class="cls-11">
        <g class="cls-10">
          <rect class="cls-4" x="321.81" y="14.97" width="44.28" height="42.1"/>
        </g>
      </g>
    </g>
  </g>
</svg>