<?xml version="1.0" encoding="UTF-8"?>
<svg id="Layer_2" data-name="Layer 2" xmlns="http://www.w3.org/2000/svg" viewBox="0 0 548.13 214.84">
  <defs>
    <style>
      .cls-1 {
        fill: #e04e39;
        stroke-width: 0px;
      }
    </style>
  </defs>
  <g id="Layer_5" data-name="Layer 5">
    <g>
      <path class="cls-1" d="m29.88,180.44c2.9,9.59,8.81,20.75,16.27,26.32,17.68,13.48,51.62-1.24,51.62-1.24,0,0,9.77-4.56,13.91-7.82,0,0-.88,2.06-.53,3.7s5.86,10,11.15,10.97c10.14,1.88,14.38-.03,32.07-43.08,10.38-22,11.09-20.81,11.09-20.81,1.17-.25-6.84,41.86-3.78,53.21,3.07,11.37,16.5,10.19,16.5,10.19,0,0,7.31,1.41,13.21-19.41,5.89-20.81,17.22-43.76,17.22-43.76,1.4,0-2.21,39.35,5.32,53.08,5.41,9.84,23.14,12.01,31.12,8.32l14.41-4.85c2.38,5.36,9.28,11.56,33.64,7.88,33.45-5.05,53.64-15.04,63.95-20.92,2.23,4.33,11.94,21.19,35.51,22.1,17.43.67,35.19-6.18,46.15-13.4l-.32,3.8c1.52,3.06,8.59,7.82,12.87,9.6,10.87,4.49,18.16-20.79,18.16-20.79l18.15-50.19c1.66,0,2.59,29.78,20.53,34.99,17.91,5.21,37.51-10.94,37.51-10.94,0,0,3.29-.21,2.35-9.68-.95-9.47-13.65-2.69-13.65-2.69,0,0-3.33,3.23-15.37,2.04-12.03-1.19-12.56-22.43-9.25-33.62,3.31-11.19.09-13.71-7-15.79-7.06-2.06-12.28,3.76-12.28,3.76,0,0-10.85,12.07-16.03,27.45h0c2.1,0,7.78-25.27,1.8-31.42-1.41-3.07-19.87-5.63-19.96,1.36-.1,8.7-4.53,46.07-13.22,59.15,0,0-20.28,17.28-37.95,20.1-17.69,2.85-23.12-7.68-23.12-7.68,0,0,44.79-18.89,47.63-52.64,3.24-38.46-38.21-23.92-42.99-21.13-4.4,2.57-25.78,16.2-32.11,52.58-1.01,5.9-.14,12.71-.14,12.71,0,0-9.53,6.13-23.49,9.25,0,0,21.9-41.76,11.37-62.68-5.44-10.82-22.45-22.33-36.07-12.65-3.62,2.57,14.98-14.47,16.23-60.89.27-10.01.98-25.09-5.28-34.46-7.09-10.61-18.13-14.44-29.79-5.29-29.68,23.27-34.36,166.09-34.36,166.09,0,0-7.32,16.21-17.23,16.25-9.91.04-4.72-25.32-4.72-25.32,0,0,6.6-39.26,6.15-45.89-.49-6.62-.95-10.16-8.74-12.53-7.78-2.37-16.28,7.57-16.28,7.57,0,0-22.39,34.06-24.27,39.26l-1.2,2.14-1.17-1.43s15.79-46.36.71-47.07c-15.09-.72-25,16.56-25,16.56,0,0-17.22,28.87-17.93,32.17l-1.17-1.42s7.06-33.58,5.66-41.88c-1.43-8.28-9.2-6.62-9.2-6.62,0,0-9.9-1.19-12.5,5.21-2.59,6.39-4.73,42.34-12.87,56.51,0,0-12.6,21.28-41.38,23.67-16.26.25-14.6-12.84-14.6-12.84,0,0,60.57-14.15,43.38-58.43-5.78-14.25-15.66-13.99-27.69-13.77-12.04.25-27.08,7.92-36.75,29.68-4.63,10.37-6.3,16.49-7.26,23.92,0,0-8.63-.46-15.72-5.09-7.09-4.63-8.58,0-8.58,0,0,0-10.08,14.94-.42,18.71,9.68,3.79,24.76,5.55,24.76,5.55,0,.01,0,.02,0,.03m50.89-50.67c6.35,6.15,4,15.63-8.02,23.91-12.01,8.3-19.64,8.25-19.64,8.25.72-28.15,21.31-38.33,27.66-32.16Zm210.15-88.2c2.6-8.62,7.82-15.52,9.25-8.07,5.66,48.96-23.65,96.97-23.65,96.97,1.86-38.77,11.81-80.29,14.4-88.9Zm12.01,144.96c-20.66,12.21-26.41-.69-26.41-.69,0,0,9.24-40.39,24.98-50.77,10.53-6.95,20-4.71,22.94,1.27,2.95,5.98-1.68,16.26-5.15,26.17-3.22,9.18-11.34,21.06-16.36,24.03Zm82.76-49.66c10.51-16.5,22.1-15.48,24.2-10.96,4.15,8.94-2.4,15.71-5.34,19.37-10.52,13.11-28.48,21.45-28.48,21.45,0,0-.9-13.36,9.62-29.86Z"/>
      <path class="cls-1" d="m490.98,199.37v-3.4h2.15c.3,0,.59.04.91.07.31.04.61.12.87.23.27.11.47.27.63.47.17.21.25.48.25.83,0,.78-.23,1.3-.7,1.5-.58.22-1.2.32-1.82.29h-2.27Zm-2.56-5.39v12.92h2.56v-5.52h1.59l3.14,5.53h2.69l-3.45-5.65c.45-.05.9-.14,1.33-.29.41-.14.77-.34,1.06-.61.31-.27.54-.61.72-1.04.2-.48.29-1.01.27-1.53,0-1.4-.44-2.39-1.31-2.95-.87-.58-2.13-.87-3.75-.87h-4.85Zm-4.09,6.47c0-1.32.22-2.53.67-3.64.45-1.09,1.06-2.05,1.84-2.84.79-.83,1.75-1.48,2.81-1.92,1.06-.44,2.19-.66,3.34-.65,1.14,0,2.28.21,3.33.65,1.05.44,2.01,1.09,2.81,1.91,1.67,1.74,2.59,4.07,2.55,6.48,0,1.32-.23,2.53-.68,3.65-.44,1.07-1.07,2.04-1.87,2.88-.79.83-1.75,1.48-2.8,1.92-1.06.44-2.19.67-3.33.65-1.21,0-2.33-.23-3.4-.68-1.03-.44-1.97-1.08-2.74-1.9-.79-.83-1.42-1.81-1.85-2.88-.46-1.16-.69-2.4-.68-3.65h0Zm-3.16,0c0,1.77.33,3.36.97,4.78.66,1.43,1.52,2.65,2.6,3.66,1.09,1,2.35,1.77,3.78,2.31,1.43.54,2.92.81,4.47.81s3.06-.27,4.49-.81c1.43-.53,2.68-1.3,3.78-2.31,1.09-1.01,1.95-2.22,2.6-3.65.64-1.42.96-3,.96-4.78s-.31-3.34-.96-4.75c-.61-1.37-1.49-2.6-2.59-3.62-1.1-1.02-2.39-1.81-3.79-2.33-1.43-.55-2.92-.82-4.49-.82-3.04-.01-5.98,1.11-8.25,3.14-1.15,1.07-2.06,2.36-2.68,3.81-.61,1.44-.92,3-.9,4.57Z"/>
    </g>
  </g>
</svg>