<?xml version="1.0" encoding="UTF-8"?>
<svg id="Layer_2" data-name="Layer 2" xmlns="http://www.w3.org/2000/svg" viewBox="0 0 548.13 214.84">
  <defs>
    <style>
      .cls-1 {
        stroke: #1e9117;
      }

      .cls-1, .cls-2 {
        fill: none;
        stroke-miterlimit: 10;
        stroke-width: 5px;
      }

      .cls-2 {
        stroke: #40db3b;
      }

      .cls-3 {
        fill: #40db3b;
      }

      .cls-3, .cls-4, .cls-5, .cls-6 {
        stroke-width: 0px;
      }

      .cls-4 {
        fill: #1e9117;
      }

      .cls-5 {
        fill: #e0e0e0;
      }

      .cls-6 {
        fill: #fff;
      }
    </style>
  </defs>
  <g id="Layer_5" data-name="Layer 5">
    <g>
      <g>
        <path class="cls-5" d="m29.88,180.44c2.9,9.59,8.81,20.75,16.27,26.32,17.68,13.48,51.62-1.24,51.62-1.24,0,0,9.77-4.56,13.91-7.82,0,0-.88,2.06-.53,3.7s5.86,10,11.15,10.97c10.14,1.88,14.38-.03,32.07-43.08,10.38-22,11.09-20.81,11.09-20.81,1.17-.25-6.84,41.86-3.78,53.21,3.07,11.37,16.5,10.19,16.5,10.19,0,0,7.31,1.41,13.21-19.41,5.89-20.81,17.22-43.76,17.22-43.76,1.4,0-2.21,39.35,5.32,53.08,5.41,9.84,23.14,12.01,31.12,8.32l14.41-4.85c2.38,5.36,9.28,11.56,33.64,7.88,33.45-5.05,53.64-15.04,63.95-20.92,2.23,4.33,11.94,21.19,35.51,22.1,17.43.67,35.19-6.18,46.15-13.4l-.32,3.8c1.52,3.06,8.59,7.82,12.87,9.6,10.87,4.49,18.16-20.79,18.16-20.79l18.15-50.19c1.66,0,2.59,29.78,20.53,34.99,17.91,5.21,37.51-10.94,37.51-10.94,0,0,3.29-.21,2.35-9.68-.95-9.47-13.65-2.69-13.65-2.69,0,0-3.33,3.23-15.37,2.04-12.03-1.19-12.56-22.43-9.25-33.62,3.31-11.19.09-13.71-7-15.79-7.06-2.06-12.28,3.76-12.28,3.76,0,0-10.85,12.07-16.03,27.45h0c2.1,0,7.78-25.27,1.8-31.42-1.41-3.07-19.87-5.63-19.96,1.36-.1,8.7-2.33,48.25-13.22,59.15,0,0-20.28,17.28-37.95,20.1-17.69,2.85-23.12-7.68-23.12-7.68,0,0,44.79-18.89,47.63-52.64,3.24-38.46-34.87-26.3-42.99-21.13-7.48,4.76-25.78,16.2-32.11,52.58-1.01,5.9-.14,12.71-.14,12.71,0,0-9.53,6.13-23.49,9.25,0,0,21.9-41.76,11.37-62.68-5.44-10.82-22.45-22.33-36.07-12.65-3.62,2.57,14.98-14.47,16.23-60.89.27-10.01.98-25.09-5.28-34.46-7.09-10.61-18.13-14.44-29.79-5.29-29.68,23.27-34.36,166.09-34.36,166.09,0,0-7.32,16.21-17.23,16.25-9.91.04-4.72-25.32-4.72-25.32,0,0,6.6-39.26,6.15-45.89-.49-6.62-.95-10.16-8.74-12.53-7.78-2.37-16.28,7.57-16.28,7.57,0,0-22.39,34.06-24.27,39.26l-1.2,2.14-1.17-1.43s15.79-46.36.71-47.07c-15.09-.72-25,16.56-25,16.56,0,0-17.22,28.87-17.93,32.17l-1.17-1.42s7.06-33.58,5.66-41.88c-1.43-8.28-9.2-6.62-9.2-6.62,0,0-9.9-1.19-12.5,5.21-2.59,6.39-4.73,42.34-12.87,56.51,0,0-12.6,21.28-41.38,23.67-16.26.25-14.6-12.84-14.6-12.84,0,0,60.57-14.15,43.38-58.43-5.78-14.25-15.66-13.99-27.69-13.77-12.04.25-27.08,7.92-36.75,29.68-4.63,10.37-6.3,16.49-7.26,23.92,0,0-8.63-.46-15.72-5.09-7.09-4.63-8.58,0-8.58,0,0,0-10.08,14.94-.42,18.71,9.68,3.79,24.76,5.55,24.76,5.55,0,.01,0,.02,0,.03m50.89-50.67c6.35,6.15,4,15.63-8.02,23.91-12.01,8.3-19.64,8.25-19.64,8.25.72-28.15,21.31-38.33,27.66-32.16Zm210.15-88.2c2.6-8.62,7.82-15.52,9.25-8.07,5.66,48.96-23.65,96.97-23.65,96.97,1.86-38.77,11.81-80.29,14.4-88.9Zm12.01,144.96c-20.66,12.21-26.41-.69-26.41-.69,0,0,9.24-40.39,24.98-50.77,10.53-6.95,20-4.71,22.94,1.27,2.95,5.98-1.68,16.26-5.15,26.17-3.22,9.18-11.34,21.06-16.36,24.03Zm82.76-49.66c10.51-16.5,22.1-15.48,24.2-10.96,4.15,8.94-2.4,15.71-5.34,19.37-10.52,13.11-28.48,21.45-28.48,21.45,0,0-.9-13.36,9.62-29.86Z"/>
        <path class="cls-5" d="m489.31,196.9v-3.4h2.15c.3,0,.59.04.91.07.31.04.61.12.87.23.27.11.47.27.63.47.17.21.25.48.25.83,0,.78-.23,1.3-.7,1.5-.58.22-1.2.32-1.82.29h-2.27Zm-2.56-5.39v12.92h2.56v-5.52h1.59l3.14,5.53h2.69l-3.45-5.65c.45-.05.9-.14,1.33-.29.41-.14.77-.34,1.06-.61.31-.27.54-.61.72-1.04.2-.48.29-1.01.27-1.53,0-1.4-.44-2.39-1.31-2.95-.87-.58-2.13-.87-3.75-.87h-4.85Zm-4.09,6.47c0-1.32.22-2.53.67-3.64.45-1.09,1.06-2.05,1.84-2.84.79-.83,1.75-1.48,2.81-1.92,1.06-.44,2.19-.66,3.34-.65,1.14,0,2.28.21,3.33.65,1.05.44,2.01,1.09,2.81,1.91,1.67,1.74,2.59,4.07,2.55,6.48,0,1.32-.23,2.53-.68,3.65-.44,1.07-1.07,2.04-1.87,2.88-.79.83-1.75,1.48-2.8,1.92-1.06.44-2.19.67-3.33.65-1.21,0-2.33-.23-3.4-.68-1.03-.44-1.97-1.08-2.74-1.9-.79-.83-1.42-1.81-1.85-2.88-.46-1.16-.69-2.4-.68-3.65h0Zm-3.16,0c0,1.77.33,3.36.97,4.78.66,1.43,1.52,2.65,2.6,3.66,1.09,1,2.35,1.77,3.78,2.31,1.43.54,2.92.81,4.47.81s3.06-.27,4.49-.81c1.43-.53,2.68-1.3,3.78-2.31,1.09-1.01,1.95-2.22,2.6-3.65.64-1.42.96-3,.96-4.78s-.31-3.34-.96-4.75c-.61-1.37-1.49-2.6-2.59-3.62-1.1-1.02-2.39-1.81-3.79-2.33-1.43-.55-2.92-.82-4.49-.82-3.04-.01-5.98,1.11-8.25,3.14-1.15,1.07-2.06,2.36-2.68,3.81-.61,1.44-.92,3-.9,4.57Z"/>
      </g>
      <g>
        <g>
          <g>
            <line class="cls-1" x1="138.23" y1="117.81" x2="127.64" y2="190.53"/>
            <g>
              <path class="cls-4" d="m126.26,206.09l.09-.49c.46.38,2.38-.07,2.35-1.58.96.34,1.69-.42,1.59-1.41-.09-.86-.1-1.35.37-2.75.59-1.74,1.44-3.72.51-6.02-.08-.2.06-.4.19-.44.25-.07.92.11,1.02-.47l.31-2.16c.11-.77-.93-1.55-4.5-2.06-3.73-.53-5.19-.7-5.43.84-.23,1.51-.28,1.93-.28,1.93-.06.48.25.61.45.71.12.06.14.25.07.37-.11.18-1.22,1.97-1.63,3.6-.39,1.51-.94,2.04-.93,3.09,0,1.25-.69,5.18-.88,6.36-.18,1.15-.08,3.06-.49,5.51-.4,2.34,2.32,2.75,2.51.62.14-1.69.36-1.71.37-2.3.02-1.03.3-2.13.48-2.91.08-.36.03-.77.29-1.8.05.6.21.65.47,1.53.43,1.3,2.85.93,3.08-.17Z"/>
              <path class="cls-6" d="m127.36,191.73c1.49.18,4.02.84,4.24.95.21.11.37-.03.39-.37.01-.23.19-1.39.19-1.39.07-.51-.36-1.2-4.31-1.78-4.1-.57-4.65-.48-4.82.73l-.18,1.5c0,.09.05.17.13.23.21.15.6-.33,4.36.12Z"/>
              <path class="cls-6" d="m127.25,195.29c.08-.06.19-.06.24-.03.24.18,0,.45-.05.68-.05.19-.37,1.21-.18,1.63.19.42.56,1.25,1.57,1.66.19.07.72.48.81,1,.06.37.43.36.5.07.19-.79.56-.99.92-3.49.18-2.01.07-3.93-2.57-4.44-1.45-.25-3.5-.49-4.27-.38-.78.11-.86.72-1.22,1.21-1.28,2.08-1.44,3.58-1.89,4.77-.18.47-.42.81-.08,1.49.73,1.45.81,3.08,1.03,3.51.13.29.21.38.3.44.15.09.13.37.29.63.09.17.13.24.18.42.32-.18.02-.42.69-.64.15-.05.39.07.49.12.23.18.19.73.2.95,0,.17,0,.38.02.58.02.52-.52.6-.34.64.92.23.91-1.05.9-1.47.03-.42-.13-.78-.17-1.21-.11-.2,0-1.15-.67-1.23-.11-.03-.35-.04-.2-.32.11-.21.26-1.28-.02-1.48-.13-.09-.21-.18-.26-.34-.05-.16.06-.24.22-.19.21.06.52.09.63-.22.11-.26.14-.4.05-.61-.08-.22-.27-.64-.23-.82.07-.14.2-.24.31.13.1.32.54.76,1.19.33.95-.65.97-.39,1.46-3.1.02-.13.06-.2.14-.26Z"/>
              <path class="cls-6" d="m126.65,199.75c-.4-.42-.51-.72-1.01-.45-.09.03-.11.15-.08.5.01.18.65.89,1.21.43.09-.11.16-.24-.12-.49Z"/>
              <path class="cls-6" d="m128.16,199.39c.1-.21-.86-.7-.92-.7-.1,0-.21,0-.31.45-.03.2.3.62.74.64.29.01.47-.35.49-.39Z"/>
              <path class="cls-6" d="m125.36,200.81c-.19-.22-.52-.71-.74-.62-.27.11-.42.26-.33.73.06.32.46.95,1.14.43.1-.17.17-.24-.07-.54Z"/>
              <path class="cls-6" d="m128.74,203.62c1.25.5,1.37-.94,1.11-1.57-.41-1.01-.44-1.83-.76-2.2-.18-.21-.68-.55-.74-.29-.06.23-.28.41-.41.52-.06.04-.4-.08-.41,0,0,.06.39.02.7.97.12.41.33,1.29.36,1.6.01.23.09.48.09.88,0,.08.04.09.07.1Z"/>
              <path class="cls-6" d="m126.43,205.05c.09-.99.21-1.37.25-1.61.3-1.19-.08-1.79-.39-2.11-.19-.28-.38-.38-.51-.59-.1-.17-.34-.38.05-.22.19.08.3.26.65.18.22-.09.35-.1.63-.44.02-.04.03-.09.05-.05.08.12.69.33.81,1.38.15,1.4.4,2.04.41,2.33,0,.05-.01.13-.03.19-.08.41-.17.55-.3.67-.12.12-.81.72-1.5.44-.08-.05-.13-.1-.12-.16Z"/>
              <path class="cls-6" d="m123.9,206.54c-.01.1,1.42.47,1.94-.49.26-.47.16-.76.25-1.25.08-.86.24-1.53.29-1.88.07-.51.01-.93-.24-1.24-.13-.16-.32-.5-.43-.31-.11.19-.17.32-.53.45-.47.17-.72-.18-.65.11.07.25.08.27.22.54.54,1.06.83,4.23-.7,3.94-.11,0-.21.08-.15.13Z"/>
              <path class="cls-6" d="m123.07,204.83c-.04.18.06.33.09.45.05.2.08.91.52.65.44-.26.24-1.24.17-1.59-.03-.15-.12-.21-.25-.23-.12-.02-.44.02-.54.72Z"/>
              <path class="cls-6" d="m119.66,209.59c.12-.75-.02-2.56.29-3.45-.04-1.16.46-3.08.5-3.73.08-.55.14-1.81.38-2.64.06.25.61,1.24.76,2.68.04.5.21.91.67,1.37.02.99-.12,2.41-.27,2.46-.07.02-.15.03-.14.21.01.16.06.09.04.38-.18,1.53-.33,2.34-.33,2.34-.07.33-.18.2-.23.32-.04.1.08.04.07.4,0,.19,0,.69-.23,2.04-.15,1.2-2,1.21-1.78-.82.15-1.38.27-1.35.26-1.56Z"/>
            </g>
          </g>
          <g>
            <path class="cls-2" d="m70.66,201.1c33.93,0,57.8-27.03,65.43-73.77"/>
            <g>
              <path class="cls-3" d="m136.76,111.72l-.07.49c-.48-.36-2.38.16-2.29,1.67-.97-.3-1.67.48-1.53,1.47.12.85.15,1.35-.27,2.77-.52,1.76-1.3,3.77-.29,6.03.09.2-.04.4-.17.44-.24.08-.92-.07-1,.51l-.23,2.17c-.08.77.98,1.51,4.58,1.89,3.74.39,5.21.5,5.39-1.04.18-1.52.21-1.94.21-1.94.04-.48-.28-.6-.48-.69-.12-.06-.15-.24-.08-.36.1-.18,1.14-2.01,1.49-3.65.33-1.52.86-2.07.81-3.12-.06-1.25.5-5.2.64-6.39.14-1.16-.04-3.06.28-5.53.31-2.36-2.43-2.66-2.53-.52-.08,1.69-.29,1.72-.28,2.31.02,1.03-.22,2.14-.36,2.92-.06.36,0,.77-.22,1.81-.08-.6-.23-.64-.52-1.51-.48-1.28-2.89-.82-3.08.29Z"/>
              <path class="cls-6" d="m136.2,126.1c-1.5-.12-4.05-.68-4.27-.79-.21-.1-.37.05-.38.38,0,.23-.14,1.4-.14,1.4-.05.51.4,1.19,4.38,1.61,4.12.41,4.66.3,4.79-.91l.12-1.51c0-.09-.06-.17-.14-.22-.22-.14-.58.35-4.36.05Z"/>
              <path class="cls-6" d="m136.17,122.55c-.08.06-.19.07-.24.03-.25-.17-.02-.45.03-.68.04-.19.33-1.22.12-1.64-.21-.41-.61-1.22-1.63-1.6-.19-.06-.74-.45-.85-.97-.08-.37-.44-.34-.5-.05-.16.8-.53,1.01-.79,3.53-.1,2.01.08,3.93,2.74,4.34,1.46.2,3.52.36,4.28.22.77-.14.83-.75,1.17-1.26,1.2-2.13,1.3-3.63,1.7-4.83.16-.47.39-.82.02-1.49-.79-1.42-.93-3.05-1.17-3.46-.14-.29-.22-.37-.32-.42-.15-.09-.14-.36-.31-.62-.09-.16-.14-.24-.19-.41-.31.19,0,.42-.67.67-.14.05-.39-.05-.49-.1-.24-.17-.22-.72-.24-.94-.01-.17-.02-.38-.04-.58-.04-.52.5-.62.32-.66-.93-.2-.87,1.09-.85,1.51-.01.42.16.78.22,1.21.12.19.05,1.15.72,1.21.11.02.35.03.21.32-.11.22-.21,1.29.08,1.48.13.09.22.17.27.33.05.16-.05.24-.22.2-.22-.05-.52-.07-.62.24-.1.27-.12.41-.02.61.09.22.3.63.26.81-.06.14-.19.24-.31-.12-.12-.32-.57-.74-1.2-.28-.92.68-.96.43-1.34,3.15-.02.13-.05.2-.13.26Z"/>
              <path class="cls-6" d="m136.6,118.07c.42.41.54.7,1.02.41.09-.03.1-.16.06-.5-.02-.18-.68-.86-1.22-.39-.08.12-.15.25.14.48Z"/>
              <path class="cls-6" d="m135.11,118.49c-.09.21.88.67.95.66.1-.01.21-.02.29-.46.02-.2-.33-.61-.76-.61-.29,0-.46.37-.48.41Z"/>
              <path class="cls-6" d="m137.85,116.96c.19.22.54.69.77.59.27-.12.41-.28.3-.74-.07-.31-.5-.93-1.16-.38-.1.18-.17.24.09.53Z"/>
              <path class="cls-6" d="m134.37,114.28c-1.27-.45-1.33,1-1.05,1.61.45.99.5,1.81.84,2.17.19.2.7.52.75.26.05-.23.27-.42.39-.53.05-.05.41.07.41-.01,0-.06-.39,0-.74-.95-.14-.41-.38-1.28-.42-1.58-.02-.23-.11-.47-.12-.88,0-.08-.04-.09-.07-.1Z"/>
              <path class="cls-6" d="m136.62,112.76c-.05.99-.15,1.38-.19,1.62-.26,1.2.15,1.79.47,2.09.21.27.39.36.53.57.11.17.36.37-.05.22-.2-.07-.31-.25-.66-.15-.22.1-.35.12-.61.47-.02.04-.03.09-.05.05-.08-.12-.71-.3-.86-1.35-.21-1.39-.47-2.02-.5-2.31,0-.05,0-.13.02-.19.06-.41.15-.56.27-.68.12-.12.78-.75,1.49-.49.08.04.14.09.13.15Z"/>
              <path class="cls-6" d="m139.09,111.17c.01-.1-1.43-.42-1.92.56-.24.48-.13.77-.2,1.26-.05.86-.18,1.54-.21,1.89-.05.51.02.93.29,1.23.13.15.34.49.44.29.1-.2.15-.33.51-.47.47-.19.73.15.65-.13-.08-.25-.09-.26-.24-.54-.58-1.04-.99-4.2.55-3.96.11,0,.2-.09.14-.14Z"/>
              <path class="cls-6" d="m139.99,112.85c.03-.18-.07-.33-.11-.44-.06-.2-.11-.91-.55-.63-.43.27-.19,1.25-.11,1.59.04.14.13.21.26.22.12.01.44-.04.51-.74Z"/>
              <path class="cls-6" d="m143.22,107.97c-.09.76.12,2.55-.16,3.46.09,1.15-.34,3.09-.36,3.75-.06.55-.07,1.81-.28,2.65-.07-.25-.65-1.22-.86-2.65-.06-.5-.24-.91-.72-1.35-.05-.99.03-2.42.17-2.47.07-.03.15-.03.13-.22-.02-.16-.07-.08-.05-.38.12-1.54.24-2.35.24-2.35.06-.34.17-.21.22-.33.04-.1-.08-.04-.08-.4,0-.19-.02-.69.15-2.05.1-1.2,1.95-1.29,1.81.75-.09,1.39-.22,1.36-.2,1.57Z"/>
            </g>
          </g>
        </g>
        <g>
          <path class="cls-1" d="m279.88,201.66c-36.2-21.98-1.96-192.09,19.56-186.65,40.02,11.46-34.91,186.33-65.35,186.33-24,0-10.88-60.62-10.88-60.62"/>
          <g>
            <path class="cls-4" d="m295.33,199h-.5c.28-.52-.55-2.31-2.02-1.97.13-1.01-.75-1.57-1.7-1.27-.82.26-1.3.37-2.77.19-1.83-.22-3.93-.66-6,.72-.18.12-.4.02-.47-.1-.12-.23-.08-.93-.67-.9l-2.18.13c-.78.05-1.33,1.22-1.1,4.83.24,3.75.37,5.22,1.92,5.14,1.53-.08,1.95-.12,1.95-.12.48-.04.54-.37.61-.59.03-.12.22-.19.34-.14.2.07,2.18.79,3.85.87,1.55.07,2.19.5,3.22.28,1.22-.26,5.21-.37,6.4-.43,1.17-.06,3.01-.55,5.5-.64,2.37-.09,2.22-2.83.1-2.58-1.68.2-1.75,0-2.33.1-1.01.19-2.15.14-2.94.13-.36,0-.76.13-1.83.08.58-.17.59-.34,1.4-.77,1.18-.68.33-2.98-.79-2.98Z"/>
            <path class="cls-6" d="m281.06,200.83c-.13-1.49,0-4.1.07-4.35.07-.23-.11-.36-.44-.31-.23.03-1.4.1-1.4.1-.51.03-1.11.6-.87,4.59.28,4.13.47,4.65,1.69,4.57l1.51-.13c.09-.02.15-.08.2-.18.1-.24-.44-.52-.77-4.3Z"/>
            <path class="cls-6" d="m284.56,200.21c-.07-.06-.1-.17-.07-.23.12-.27.44-.09.68-.08.2,0,1.26.12,1.63-.16.37-.27,1.11-.8,1.31-1.87.03-.2.32-.8.82-1,.35-.14.27-.49-.04-.51-.82-.03-1.09-.35-3.61-.19-2,.23-3.87.73-3.83,3.42.05,1.47.23,3.53.49,4.26.27.74.88.7,1.43.94,2.3.83,3.79.68,5.05.88.5.08.88.25,1.47-.23,1.27-1.01,2.85-1.42,3.22-1.73.26-.19.33-.28.37-.38.06-.16.34-.2.56-.41.15-.12.21-.18.37-.26-.24-.28-.42.06-.77-.55-.07-.13-.01-.39.02-.5.13-.27.68-.34.89-.39.17-.04.37-.09.56-.14.51-.13.69.39.7.2.04-.95-1.22-.68-1.63-.58-.41.06-.74.29-1.15.42-.17.15-1.12.23-1.07.91,0,.11.03.35-.28.26-.23-.07-1.31,0-1.45.32-.06.14-.13.24-.28.32-.15.08-.24,0-.23-.18.01-.22-.02-.53-.34-.58-.28-.06-.42-.05-.61.08-.2.12-.57.4-.76.39-.15-.04-.27-.14.06-.32.3-.17.64-.69.08-1.23-.82-.8-.58-.88-3.33-.8-.13,0-.21-.01-.28-.08Z"/>
            <path class="cls-6" d="m289.05,199.9c-.33.48-.6.65-.23,1.08.05.08.17.08.51-.02.18-.05.74-.81.18-1.27-.13-.06-.27-.1-.45.21Z"/>
            <path class="cls-6" d="m288.39,198.5c-.22-.06-.51.98-.49,1.05.03.1.05.2.5.21.2-.01.54-.42.48-.85-.05-.29-.44-.39-.48-.4Z"/>
            <path class="cls-6" d="m290.35,200.95c-.18.23-.59.65-.46.85.16.25.34.36.78.18.3-.12.83-.65.19-1.21-.19-.06-.27-.12-.51.18Z"/>
            <path class="cls-6" d="m292.41,197.07c.24-1.33-1.2-1.15-1.76-.77-.9.61-1.71.8-2,1.19-.17.22-.4.78-.13.79.24.01.46.2.59.3.05.05,0,.41.08.4.05-.02-.06-.39.81-.88.38-.2,1.2-.59,1.49-.67.23-.06.45-.19.85-.27.08-.02.08-.06.08-.09Z"/>
            <path class="cls-6" d="m294.29,199.03c-.99.11-1.39.08-1.63.08-1.23-.05-1.74.45-1.98.81-.24.25-.29.45-.48.62-.15.14-.3.42-.22,0,.04-.21.2-.34.04-.68-.14-.2-.17-.32-.56-.52-.04-.01-.09-.01-.06-.04.11-.1.18-.75,1.19-1.08,1.34-.43,1.92-.8,2.2-.87.05-.01.13-.02.19-.01.42,0,.58.06.71.16.14.1.87.64.73,1.38-.03.09-.07.15-.13.15Z"/>
            <path class="cls-6" d="m296.26,201.21c.1,0,.17-1.49-.87-1.8-.51-.15-.78,0-1.28,0-.86.09-1.55.07-1.9.1-.51.04-.91.17-1.17.49-.13.16-.43.41-.21.49.21.07.35.1.55.43.26.43-.03.75.24.61.23-.12.25-.13.49-.32.93-.75,3.98-1.67,4-.11.02.11.12.18.16.12Z"/>
            <path class="cls-6" d="m294.76,202.37c.18,0,.32-.13.42-.18.19-.09.88-.26.53-.64-.34-.38-1.27.02-1.59.15-.14.07-.19.17-.18.29,0,.12.11.42.82.38Z"/>
            <path class="cls-6" d="m300.1,204.75c-.76.03-2.5.54-3.44.41-1.12.28-3.11.17-3.75.27-.55.03-1.8.23-2.66.16.23-.11,1.09-.84,2.47-1.29.48-.14.85-.39,1.21-.94.97-.22,2.39-.37,2.46-.24.04.06.06.14.24.09.16-.04.07-.08.37-.11,1.54-.13,2.35-.16,2.35-.16.34,0,.24.13.36.16.11.02.02-.09.38-.15.19-.03.67-.13,2.04-.19,1.21-.1,1.59,1.71-.44,1.91-1.38.14-1.38.01-1.58.07Z"/>
          </g>
        </g>
        <g>
          <path class="cls-1" d="m378.72,198.19c-35.68-20.87,1.96-102.74,32.34-84.11,35.82,30.17-72.05,83.32-101.28,84.01"/>
          <g>
            <path class="cls-4" d="m394.23,200.33l-.48-.13c.42-.43.11-2.38-1.41-2.46.41-.93-.29-1.72-1.29-1.69-.86.03-1.35,0-2.72-.57-1.69-.71-3.6-1.71-5.96-.95-.21.07-.39-.09-.42-.22-.05-.25.18-.91-.39-1.05l-2.13-.47c-.76-.17-1.61.81-2.38,4.34-.8,3.68-1.08,5.12.44,5.47,1.49.34,1.91.42,1.91.42.48.09.62-.21.74-.4.07-.11.26-.12.37-.04.17.13,1.88,1.36,3.47,1.89,1.48.49,1.97,1.08,3.02,1.15,1.25.08,5.11,1.07,6.28,1.34,1.14.27,3.05.3,5.46.89,2.31.56,2.91-2.12.8-2.45-1.67-.27-1.68-.48-2.27-.54-1.03-.1-2.1-.46-2.86-.68-.35-.1-.76-.08-1.78-.42.6,0,.66-.16,1.56-.35,1.32-.33,1.14-2.78.05-3.09Z"/>
            <path class="cls-6" d="m379.99,198.18c.28-1.47,1.13-3.94,1.26-4.16.12-.2,0-.37-.34-.41-.23-.03-1.37-.29-1.37-.29-.5-.11-1.23.27-2.09,4.18-.86,4.05-.82,4.6.38,4.86l1.49.28c.09,0,.17-.03.24-.12.17-.2-.28-.62.43-4.34Z"/>
            <path class="cls-6" d="m383.53,198.55c-.05-.08-.05-.2,0-.24.19-.23.45.03.67.11.19.06,1.18.46,1.61.3.43-.16,1.28-.47,1.77-1.44.08-.18.53-.68,1.06-.74.37-.03.39-.4.1-.5-.78-.25-.95-.64-3.42-1.17-1.99-.33-3.92-.35-4.62,2.24-.36,1.43-.74,3.45-.69,4.23.05.79.65.91,1.12,1.3,1.98,1.43,3.46,1.69,4.62,2.23.45.21.78.48,1.48.18,1.5-.62,3.13-.59,3.57-.78.3-.11.39-.18.46-.27.1-.14.38-.1.65-.24.17-.08.25-.12.43-.15-.15-.33-.42-.06-.59-.74-.04-.15.09-.38.16-.48.2-.22.74-.14.96-.13.17,0,.38.02.58.02.52.02.56.56.62.38.3-.9-.98-.99-1.41-1.01-.42-.06-.79.07-1.22.09-.21.1-1.14-.08-1.28.58-.04.1-.07.34-.34.17-.2-.13-1.26-.35-1.48-.08-.1.12-.19.2-.36.23-.16.03-.23-.07-.18-.24.07-.21.12-.51-.17-.65-.26-.13-.39-.17-.61-.09-.23.06-.66.22-.83.17-.13-.08-.22-.21.15-.29.33-.08.8-.49.41-1.16-.57-.99-.32-1-2.98-1.68-.13-.03-.19-.07-.25-.16Z"/>
            <path class="cls-6" d="m387.94,199.47c-.45.37-.76.46-.52.97.02.09.14.12.49.12.18,0,.93-.58.52-1.17-.11-.09-.23-.17-.5.08Z"/>
            <path class="cls-6" d="m387.68,197.95c-.2-.12-.76.8-.76.87,0,.1,0,.21.42.34.2.04.64-.26.69-.69.03-.29-.32-.5-.35-.52Z"/>
            <path class="cls-6" d="m388.9,200.84c-.23.17-.75.46-.67.7.09.28.23.44.7.38.32-.04.98-.39.51-1.11-.17-.11-.22-.19-.54.03Z"/>
            <path class="cls-6" d="m391.95,197.67c.59-1.22-.84-1.43-1.49-1.22-1.03.34-1.86.3-2.25.6-.22.17-.6.64-.34.72.22.08.39.31.48.45.04.06-.11.39-.03.4.06,0,.04-.39,1.02-.63.42-.09,1.31-.24,1.62-.24.24,0,.48-.06.89-.02.08,0,.09-.03.1-.06Z"/>
            <path class="cls-6" d="m393.21,200.08c-.98-.16-1.36-.3-1.59-.37-1.17-.38-1.8-.04-2.13.24-.29.17-.4.35-.63.46-.18.09-.4.32-.21-.07.09-.19.28-.28.23-.64-.08-.23-.08-.36-.4-.65-.04-.02-.08-.04-.05-.05.13-.07.38-.67,1.44-.71,1.4-.05,2.06-.25,2.35-.24.05,0,.12.02.18.04.4.11.54.21.64.34.11.13.66.86.32,1.53-.05.07-.11.12-.17.11Z"/>
            <path class="cls-6" d="m394.51,202.71c.09.02.57-1.38-.35-1.97-.45-.29-.75-.22-1.23-.34-.85-.14-1.51-.35-1.86-.42-.5-.1-.92-.08-1.26.15-.17.12-.53.28-.34.41.19.12.31.19.41.56.13.49-.23.71.06.66.25-.05.27-.05.56-.18,1.1-.47,4.28-.52,3.88.99,0,.11.07.21.12.15Z"/>
            <path class="cls-6" d="m392.75,203.42c.17.05.34-.03.45-.06.21-.04.91-.01.69-.47-.22-.46-1.22-.33-1.57-.29-.15.03-.22.11-.25.23-.03.12-.01.44.68.59Z"/>
            <path class="cls-6" d="m397.24,207.17c-.74-.18-2.55-.16-3.42-.54-1.16-.04-3.03-.68-3.68-.77-.54-.12-1.79-.27-2.6-.58.25-.04,1.28-.51,2.73-.56.5,0,.93-.14,1.42-.57.99.06,2.4.3,2.43.45.02.07.02.15.2.15.16,0,.09-.06.39,0,1.51.29,2.31.49,2.31.49.33.09.19.19.3.25.1.05.04-.08.41-.04.19.02.68.06,2.02.37,1.19.23,1.06,2.08-.95,1.72-1.37-.24-1.33-.36-1.54-.37Z"/>
          </g>
        </g>
      </g>
    </g>
  </g>
</svg>