<?xml version="1.0" encoding="UTF-8"?>
<svg id="Layer_2" data-name="Layer 2" xmlns="http://www.w3.org/2000/svg" viewBox="0 0 553.83 222.11">
  <defs>
    <style>
      .cls-1 {
        stroke: #ff002b;
      }

      .cls-1, .cls-2, .cls-3, .cls-4 {
        fill: none;
        stroke-miterlimit: 10;
        stroke-width: 5px;
      }

      .cls-2 {
        stroke: #1e9117;
      }

      .cls-3 {
        stroke: #40db3b;
      }

      .cls-4 {
        stroke: #930020;
      }

      .cls-5 {
        fill: #40db3b;
      }

      .cls-5, .cls-6, .cls-7, .cls-8, .cls-9, .cls-10 {
        stroke-width: 0px;
      }

      .cls-6 {
        fill: #1e9117;
      }

      .cls-7 {
        fill: #e0e0e0;
      }

      .cls-8 {
        fill: #930020;
      }

      .cls-9 {
        fill: #fff;
      }

      .cls-10 {
        fill: #ff002b;
      }
    </style>
  </defs>
  <g id="Layer_5" data-name="Layer 5">
    <g>
      <g id="old">
        <path class="cls-7" d="m544.42,147.56s-13.47,10.48-25.33,9.31c-11.86-1.17-8.13-27.75-8.13-27.75,0,0,2.55-24.38-4.44-26.43-6.96-2.03-15.56,6.36-15.56,6.36,0,0-10.69,11.9-15.81,27.06l-1.41.46s1.63-26.6-.22-32.66c-1.39-3.03-14.18-2.79-16.27,2.56-2.1,5.37-12.32,42.68-13.03,58.31,0,0-19.99,17.04-37.41,19.82-17.44,2.81-21.62-8.16-21.62-8.16,0,0,47.42-13.29,45.79-51.31-1.61-38.01-38.24-23.94-42.38-20.83-4.01,3.03-25.42,15.97-31.66,51.84-.21,1.2-.58,6.54-.58,6.54,0,0-18.37,12.34-28.59,15.61,0,0,28.59-48.27-6.26-70.19-9.8-5.92-18.35-.47-23.43,4.53-3.12,3.07,42.26-46.73,31.79-91.29-4.97-21.21-15.54-23.48-25.24-20.04-14.72,5.82-20.3,14.45-20.3,14.45,0,0-19.07,27.76-23.5,69.04-4.42,41.27-10.92,91.18-10.92,91.18,0,0-9.07,8.86-17.43,9.33-8.38.45-4.66-24.96-4.66-24.96,0,0,6.51-38.7,6.06-45.24-.48-6.52-.94-10.02-8.61-12.35-7.67-2.34-16.05,7.46-16.05,7.46,0,0-22.07,33.57-23.92,38.7l-1.18,2.11-1.15-1.41s15.56-45.71.7-46.4c-14.88-.71-24.64,16.32-24.64,16.32,0,0-16.98,28.46-17.67,31.72l-1.15-1.4s6.96-33.11,5.58-41.29c-1.41-8.16-9.07-6.52-9.07-6.52,0,0-9.76-1.17-12.32,5.13-2.55,6.3-4.67,41.74-12.69,55.71,0,0-12.42,20.98-40.79,23.33-16.03.24-14.39-10.19-14.39-10.19,0,0,58.81-20.2,42.77-60.07-7.2-10.26-15.56-13.48-27.42-13.26-11.87.24-26.57,7.49-36.1,28.95-4.56,10.22-6.21,19.95-7.16,27.28,0,0-10.28,2.12-15.86-2.54-5.59-4.67-8.45,0-8.45,0,0,0-9.58,12.25-.05,15.97,9.54,3.74,24.41,5.47,24.41,5.47,2.26,10.59,8.28,19.99,16.95,26.46,17.43,13.29,50.88-1.22,50.88-1.22l13.71-7.71s.47,12.62,10.47,14.46c9.99,1.85,14.18-.03,31.61-42.47,10.23-21.69,10.93-20.52,10.93-20.52,1.15-.24-6.74,41.27-3.72,52.46,3.02,11.21,16.27,10.04,16.27,10.04,0,0,7.21,1.39,13.02-19.13,5.81-20.52,16.98-43.14,16.98-43.14,1.38,0-3.49,42.44,3.93,55.97,7.45,13.53,26.74,4.54,26.74,4.54,0,0,13.49-6.81,15.58-8.92,0,0,15.99,13.67,38.56,11.19,50.46-9.97,68.41-23.43,68.41-23.43,0,0,8.67,22.04,35.52,24.09,30.67,2.32,47.42-17.03,47.42-17.03,0,0-.24,12.58,10.45,17.03,10.71,4.43,17.9-20.49,17.9-20.49l17.9-49.48c1.63,0,2.55,32.17,20.24,37.31,17.66,5.13,40.68-12.02,40.68-12.02,0,0,5.58-3.08,4.65-12.41-.94-9.34-9.3-5.85-9.3-5.85Zm-465.61-23.35c6.26,6.06,3.94,19.11-7.91,27.27-11.84,8.18-17.2,6.54-17.2,6.54.71-27.76,18.85-39.9,25.11-33.82ZM310.1,28.35c3.95,20.99-34.63,83.49-34.63,83.49.46-14,14.17-61.34,14.17-61.34,0,0,16.49-43.14,20.46-22.16h0Zm-38.13,159.28s-3.02-10.26,5.58-38.94c8.61-28.69,28.83-17.5,28.83-17.5,0,0,13.95,10.73,3.02,39.41-10.92,28.68-37.43,17.03-37.43,17.03Zm117.63-56.2c9.52-17.49,16.97-7.94,16.97-7.94,0,0,8.13,8.86-1.16,22.16-9.31,13.29-22.78,12.36-22.78,12.36,0,0-2.55-9.11,6.98-26.59Z"/>
        <path class="cls-7" d="m484.75,202.21v-3.35h2.12c.3,0,.58.03.89.07.31.04.61.12.85.23.26.11.46.26.62.46.17.2.24.48.24.82,0,.77-.23,1.28-.69,1.48-.57.22-1.18.31-1.79.29h-2.24Zm-2.52-5.31v12.74h2.52v-5.44h1.57l3.09,5.45h2.65l-3.4-5.57c.45-.04.89-.14,1.31-.28.4-.13.76-.34,1.05-.6.31-.26.54-.61.71-1.02.19-.48.29-.99.27-1.51,0-1.38-.44-2.35-1.29-2.91-.86-.57-2.1-.85-3.7-.85h-4.78Zm-4.03,6.38c0-1.3.21-2.5.67-3.58.44-1.08,1.05-2.02,1.82-2.8.78-.81,1.73-1.46,2.77-1.89,1.04-.44,2.16-.65,3.29-.64,1.13,0,2.24.21,3.28.64,1.04.44,1.98,1.08,2.77,1.89,1.65,1.71,2.55,4.01,2.51,6.39,0,1.3-.23,2.5-.67,3.6-.43,1.05-1.06,2.02-1.84,2.84-.78.81-1.72,1.46-2.76,1.9-1.04.44-2.16.66-3.29.65-1.19,0-2.3-.22-3.35-.67-1.02-.43-1.94-1.07-2.7-1.87-.78-.82-1.4-1.78-1.82-2.84-.46-1.14-.68-2.37-.67-3.6h0Zm-3.11,0c0,1.75.33,3.32.96,4.71.65,1.41,1.5,2.61,2.57,3.6,1.07.99,2.32,1.75,3.72,2.27,1.41.53,2.88.79,4.4.79s3.02-.27,4.42-.79c1.41-.52,2.64-1.28,3.72-2.27,1.07-.99,1.92-2.19,2.57-3.6.63-1.4.94-2.96.94-4.72s-.31-3.29-.94-4.68c-.6-1.35-1.47-2.56-2.55-3.57-1.08-1.01-2.35-1.79-3.74-2.29-1.41-.54-2.88-.81-4.42-.81-3-.01-5.9,1.09-8.13,3.09-1.13,1.05-2.03,2.33-2.64,3.75-.61,1.42-.91,2.96-.88,4.5Z"/>
      </g>
      <g>
        <line class="cls-2" x1="133.93" y1="122.67" x2="122.75" y2="199.51"/>
        <g>
          <path class="cls-6" d="m121.37,215.07l.09-.49c.46.38,2.38-.07,2.35-1.58.96.34,1.69-.42,1.59-1.41-.09-.86-.1-1.35.37-2.75.59-1.74,1.44-3.72.52-6.02-.08-.2.06-.4.19-.44.25-.07.92.11,1.02-.47l.31-2.16c.11-.77-.93-1.55-4.5-2.06-3.73-.53-5.19-.7-5.43.84-.23,1.51-.28,1.93-.28,1.93-.06.48.25.61.45.71.12.06.14.25.07.37-.11.18-1.22,1.97-1.63,3.6-.39,1.51-.94,2.04-.93,3.09,0,1.25-.69,5.18-.88,6.36-.18,1.15-.08,3.06-.5,5.51-.4,2.34,2.32,2.75,2.51.62.15-1.69.36-1.71.37-2.3.02-1.03.3-2.13.48-2.91.08-.36.03-.77.29-1.8.05.6.21.65.47,1.53.43,1.3,2.85.93,3.08-.17Z"/>
          <path class="cls-9" d="m122.47,200.71c1.49.18,4.02.84,4.24.95.21.11.37-.03.39-.37.01-.23.19-1.39.19-1.39.07-.51-.36-1.2-4.31-1.78-4.1-.57-4.65-.48-4.82.73l-.18,1.5c0,.09.05.17.13.23.21.15.6-.33,4.36.12Z"/>
          <path class="cls-9" d="m122.36,204.27c.08-.06.19-.06.24-.03.24.18,0,.45-.05.68-.05.19-.37,1.21-.18,1.63.19.42.56,1.25,1.57,1.66.19.07.72.48.81,1,.06.37.43.36.5.07.19-.79.56-.99.92-3.49.18-2.01.07-3.93-2.57-4.44-1.45-.25-3.5-.49-4.27-.38-.78.11-.86.72-1.22,1.21-1.28,2.08-1.44,3.58-1.89,4.77-.18.47-.42.81-.08,1.49.73,1.45.81,3.08,1.03,3.51.13.29.21.38.3.44.15.09.13.37.29.63.09.17.13.24.18.42.32-.18.02-.42.69-.64.15-.05.39.07.49.12.23.18.19.73.2.95,0,.17,0,.38.02.58.02.52-.52.6-.34.64.92.23.91-1.05.9-1.47.03-.42-.13-.78-.17-1.21-.11-.2,0-1.15-.67-1.23-.11-.03-.35-.04-.2-.32.12-.21.26-1.28-.02-1.48-.13-.09-.21-.18-.26-.34-.05-.16.06-.24.22-.19.21.06.52.09.63-.22.11-.26.14-.4.05-.61-.08-.22-.27-.64-.23-.82.07-.14.2-.23.31.13.1.32.54.76,1.19.33.95-.65.97-.39,1.46-3.1.02-.13.06-.2.14-.26Z"/>
          <path class="cls-9" d="m121.76,208.73c-.4-.42-.51-.72-1.01-.45-.09.03-.11.15-.08.5.01.18.65.89,1.21.43.09-.11.16-.24-.12-.49Z"/>
          <path class="cls-9" d="m123.27,208.37c.1-.21-.86-.7-.92-.7-.1,0-.21,0-.31.45-.03.2.31.62.74.64.29.01.47-.35.49-.39Z"/>
          <path class="cls-9" d="m120.47,209.79c-.19-.22-.52-.71-.74-.62-.27.11-.42.26-.33.73.06.32.46.95,1.14.43.1-.17.17-.24-.07-.54Z"/>
          <path class="cls-9" d="m123.85,212.6c1.25.5,1.37-.94,1.11-1.57-.41-1.01-.43-1.83-.76-2.2-.18-.21-.68-.55-.74-.29-.06.23-.28.41-.41.52-.06.04-.4-.08-.41,0,0,.06.39.02.7.97.12.41.33,1.29.36,1.6.01.23.09.48.09.88,0,.08.04.09.07.1Z"/>
          <path class="cls-9" d="m121.54,214.03c.09-.99.21-1.37.25-1.61.3-1.19-.08-1.79-.39-2.11-.19-.28-.38-.38-.51-.59-.1-.17-.34-.38.05-.22.19.08.3.26.65.18.22-.09.35-.1.63-.44.02-.04.03-.09.05-.05.08.12.69.33.81,1.38.15,1.4.4,2.04.41,2.33,0,.05-.01.13-.03.19-.08.41-.17.55-.3.67-.12.12-.81.72-1.5.44-.08-.05-.13-.1-.12-.16Z"/>
          <path class="cls-9" d="m119.01,215.52c-.01.1,1.42.47,1.94-.49.25-.47.16-.76.25-1.25.08-.86.24-1.53.29-1.88.07-.51.01-.93-.24-1.24-.13-.16-.32-.5-.43-.31-.11.19-.17.32-.53.45-.47.17-.72-.18-.65.11.07.25.08.27.22.54.54,1.06.83,4.23-.7,3.94-.11,0-.21.08-.15.13Z"/>
          <path class="cls-9" d="m118.18,213.82c-.04.18.06.33.09.45.05.2.08.91.52.65.44-.26.24-1.24.18-1.59-.04-.15-.12-.21-.25-.23-.12-.02-.44.02-.54.72Z"/>
          <path class="cls-9" d="m114.76,218.57c.12-.75-.02-2.56.29-3.45-.04-1.16.46-3.08.5-3.73.08-.55.14-1.81.38-2.64.06.25.61,1.24.76,2.68.04.5.21.91.67,1.37.02.99-.12,2.41-.27,2.46-.07.02-.15.03-.14.21.01.16.06.09.04.38-.18,1.53-.33,2.34-.33,2.34-.07.33-.18.2-.23.32-.04.1.08.04.07.4,0,.19,0,.69-.23,2.04-.15,1.2-2,1.21-1.78-.82.15-1.38.27-1.35.26-1.56Z"/>
        </g>
      </g>
      <g>
        <path class="cls-3" d="m66.31,197.78c44.78,0,63.55-29.83,69.57-91.77"/>
        <g>
          <path class="cls-5" d="m136.06,90.39l-.06.5c-.49-.35-2.37.24-2.23,1.75-.98-.27-1.66.54-1.48,1.52.15.85.2,1.34-.17,2.77-.46,1.78-1.17,3.81-.08,6.04.1.19-.03.4-.16.45-.24.09-.93-.04-.98.54l-.16,2.17c-.06.78,1.04,1.48,4.64,1.73,3.75.26,5.23.32,5.35-1.23.12-1.52.14-1.95.14-1.95.02-.49-.3-.59-.5-.68-.12-.05-.16-.24-.09-.36.1-.19,1.07-2.05,1.37-3.7.28-1.53.79-2.1.7-3.15-.1-1.24.32-5.21.42-6.4.1-1.16-.14-3.06.1-5.54.23-2.36-2.52-2.57-2.54-.44-.02,1.69-.23,1.73-.2,2.32.05,1.03-.15,2.15-.26,2.93-.05.36.03.77-.16,1.82-.1-.59-.26-.63-.57-1.49-.52-1.26-2.91-.73-3.06.39Z"/>
          <path class="cls-9" d="m135.99,104.78c-1.5-.07-4.07-.54-4.3-.65-.22-.1-.37.06-.36.39,0,.23-.09,1.4-.09,1.4-.04.51.44,1.17,4.43,1.46,4.13.27,4.67.14,4.76-1.08l.07-1.51c-.01-.09-.06-.16-.15-.22-.22-.14-.57.37-4.36.2Z"/>
          <path class="cls-9" d="m135.84,101.23c-.07.06-.19.08-.24.04-.25-.16-.03-.45,0-.68.03-.19.28-1.23.06-1.64-.22-.41-.65-1.2-1.68-1.54-.19-.06-.75-.43-.88-.94-.09-.36-.45-.33-.51-.03-.14.81-.49,1.03-.67,3.55-.03,2.02.22,3.93,2.88,4.25,1.47.15,3.53.23,4.28.07.77-.16.81-.78,1.12-1.3,1.13-2.17,1.17-3.67,1.54-4.89.14-.48.36-.84-.03-1.49-.84-1.39-1.03-3.01-1.28-3.42-.15-.28-.24-.36-.33-.41-.16-.08-.16-.36-.33-.61-.1-.16-.15-.23-.21-.41-.31.2,0,.42-.65.69-.14.06-.39-.04-.5-.09-.24-.16-.25-.71-.27-.93-.02-.17-.04-.38-.06-.58-.06-.52.48-.64.29-.67-.94-.16-.83,1.12-.79,1.54,0,.42.19.77.26,1.2.13.19.08,1.14.76,1.18.11.02.35.02.22.31-.1.22-.17,1.3.13,1.48.14.08.22.16.28.32.06.16-.04.24-.21.21-.22-.04-.52-.05-.62.26-.09.27-.11.41,0,.61.1.22.32.62.29.8-.06.14-.18.25-.31-.11-.13-.32-.6-.72-1.21-.24-.9.71-.94.46-1.23,3.19-.02.13-.04.2-.12.27Z"/>
          <path class="cls-9" d="m136.12,96.74c.43.39.56.68,1.04.37.09-.03.1-.16.04-.51-.03-.18-.71-.84-1.23-.35-.08.12-.14.25.15.48Z"/>
          <path class="cls-9" d="m134.65,97.21c-.08.21.91.64.97.63.1-.02.2-.02.27-.47.01-.2-.35-.6-.78-.59-.29,0-.45.38-.46.43Z"/>
          <path class="cls-9" d="m137.33,95.59c.2.21.57.67.79.57.26-.13.4-.29.28-.75-.08-.31-.53-.91-1.17-.34-.09.18-.16.25.11.53Z"/>
          <path class="cls-9" d="m133.76,93.03c-1.29-.41-1.29,1.04-.99,1.65.49.97.57,1.8.92,2.14.2.19.71.5.76.24.04-.23.25-.43.37-.54.05-.05.41.05.41-.02,0-.06-.39.01-.77-.92-.15-.4-.43-1.26-.47-1.57-.03-.23-.12-.47-.15-.87,0-.08-.05-.09-.08-.1Z"/>
          <path class="cls-9" d="m135.96,91.43c-.02.99-.11,1.39-.13,1.63-.21,1.21.21,1.78.54,2.07.21.27.41.35.55.56.11.17.37.35-.04.22-.2-.07-.32-.24-.67-.13-.22.11-.34.13-.59.49-.02.04-.03.09-.04.05-.08-.12-.72-.28-.91-1.32-.25-1.38-.54-2.01-.57-2.29,0-.05,0-.13.01-.19.05-.42.13-.56.25-.69.12-.12.75-.77,1.47-.54.08.04.14.09.13.15Z"/>
          <path class="cls-9" d="m138.38,89.76c0-.1-1.45-.37-1.9.63-.22.49-.11.77-.16,1.27-.02.86-.13,1.55-.15,1.9-.03.51.05.92.33,1.22.14.15.35.48.45.28.1-.2.14-.33.5-.49.46-.2.74.13.64-.16-.09-.24-.09-.26-.26-.53-.62-1.02-1.13-4.16.41-3.98.11,0,.2-.1.14-.14Z"/>
          <path class="cls-9" d="m139.33,91.41c.02-.18-.08-.33-.12-.44-.07-.2-.14-.9-.57-.61-.42.29-.15,1.26-.06,1.6.05.14.14.21.26.21.12,0,.44-.05.49-.76Z"/>
          <path class="cls-9" d="m142.39,86.42c-.07.76.21,2.55-.04,3.46.12,1.15-.24,3.1-.23,3.76-.04.55,0,1.81-.19,2.66-.08-.24-.69-1.19-.95-2.62-.08-.49-.27-.9-.77-1.32-.09-.99-.05-2.42.09-2.47.07-.03.15-.04.12-.22-.02-.16-.07-.08-.06-.38.07-1.54.16-2.35.16-2.35.04-.34.16-.22.2-.33.04-.1-.08-.03-.1-.4,0-.19-.04-.68.08-2.05.06-1.21,1.9-1.35,1.84.69-.05,1.39-.17,1.37-.14,1.58Z"/>
        </g>
      </g>
      <g>
        <path class="cls-1" d="m259.27,139.47c29.7-13.33,81.21-110.28,55.27-127.48-10.4-6.89-30.67,7.83-41.15,46.89"/>
        <g>
          <path class="cls-10" d="m271.28,74.37l.12-.49c.44.41,2.38.07,2.43-1.45.94.39,1.71-.32,1.66-1.32-.04-.86-.03-1.35.53-2.73.69-1.71,1.65-3.63.85-5.98-.07-.2.08-.39.21-.42.25-.06.91.16,1.04-.41l.43-2.14c.15-.76-.84-1.6-4.38-2.31-3.69-.74-5.14-.99-5.47.53-.32,1.49-.39,1.91-.39,1.91-.08.48.22.62.41.74.11.07.13.26.05.37-.12.17-1.32,1.9-1.83,3.5-.47,1.48-1.05,1.98-1.1,3.04-.06,1.25-.98,5.13-1.23,6.3-.25,1.14-.25,3.05-.8,5.48-.53,2.32,2.17,2.87,2.47.76.24-1.68.45-1.69.5-2.27.08-1.03.42-2.11.64-2.88.1-.35.07-.76.39-1.78.02.6.17.66.38,1.55.36,1.32,2.8,1.09,3.09,0Z"/>
          <path class="cls-9" d="m273.18,60.1c1.48.26,3.96,1.06,4.18,1.19.2.12.37-.01.41-.34.03-.23.27-1.38.27-1.38.1-.5-.29-1.22-4.21-2.02-4.06-.8-4.61-.74-4.86.46l-.26,1.49c0,.09.04.17.12.24.2.16.62-.29,4.35.36Z"/>
          <path class="cls-9" d="m272.88,63.65c.08-.05.19-.05.24-.01.23.19-.02.45-.09.67-.06.19-.44,1.19-.27,1.62.17.43.49,1.27,1.47,1.74.18.08.69.52.75,1.05.04.37.41.38.5.09.24-.78.62-.96,1.12-3.44.29-2,.29-3.92-2.32-4.58-1.44-.33-3.47-.68-4.24-.62-.78.07-.9.67-1.28,1.14-1.39,2.01-1.63,3.49-2.15,4.65-.2.46-.46.78-.16,1.48.65,1.49.64,3.12.84,3.56.12.3.19.39.28.45.14.1.11.38.25.65.08.17.12.25.15.43.33-.16.05-.42.73-.6.15-.04.38.09.48.15.22.19.15.74.15.96,0,.17-.01.38-.01.58,0,.52-.56.57-.38.62.91.28.97-1,.98-1.42.05-.42-.09-.79-.11-1.22-.1-.2.06-1.15-.6-1.27-.1-.03-.35-.06-.18-.33.13-.2.33-1.26.06-1.48-.12-.1-.2-.19-.24-.35-.04-.16.07-.23.23-.18.21.07.51.11.65-.18.13-.26.16-.39.08-.61-.07-.23-.24-.66-.19-.83.08-.13.21-.22.3.15.09.33.5.79,1.17.39.98-.59.99-.33,1.63-3.01.03-.13.07-.19.15-.25Z"/>
          <path class="cls-9" d="m272.03,68.07c-.38-.44-.47-.75-.98-.5-.09.02-.12.15-.11.5,0,.18.6.92,1.18.5.1-.11.17-.23-.09-.49Z"/>
          <path class="cls-9" d="m273.55,67.79c.11-.2-.82-.75-.88-.75-.1,0-.21,0-.33.43-.04.2.27.64.7.68.29.03.49-.32.51-.36Z"/>
          <path class="cls-9" d="m270.68,69.06c-.17-.23-.48-.74-.71-.66-.28.09-.44.24-.37.71.04.32.41.97,1.12.49.11-.17.19-.22-.04-.54Z"/>
          <path class="cls-9" d="m273.9,72.05c1.22.57,1.42-.87,1.19-1.51-.36-1.03-.33-1.85-.64-2.24-.17-.22-.65-.59-.73-.33-.07.22-.3.4-.44.49-.06.04-.4-.1-.41-.03,0,.06.39.04.65,1.01.1.42.26,1.31.27,1.61,0,.23.06.48.04.89,0,.08.04.09.06.1Z"/>
          <path class="cls-9" d="m271.52,73.35c.14-.98.28-1.36.34-1.6.37-1.17.02-1.8-.27-2.12-.18-.29-.36-.4-.47-.62-.09-.18-.32-.4.07-.21.19.09.28.28.64.22.23-.08.36-.08.65-.41.02-.04.04-.08.05-.05.07.13.67.37.73,1.42.07,1.4.28,2.06.28,2.35,0,.05-.02.12-.04.19-.1.41-.2.54-.33.65-.13.11-.84.67-1.53.35-.07-.05-.13-.1-.11-.17Z"/>
          <path class="cls-9" d="m268.9,74.7c-.02.09,1.39.55,1.96-.38.28-.46.2-.75.32-1.24.13-.85.33-1.52.39-1.86.09-.51.06-.92-.17-1.25-.12-.17-.29-.52-.41-.33-.12.19-.18.31-.55.42-.48.14-.71-.22-.65.07.05.25.06.27.19.56.48,1.09.59,4.27-.92,3.89-.11,0-.21.07-.15.13Z"/>
          <path class="cls-9" d="m268.17,72.95c-.05.18.04.34.07.45.04.21.03.91.49.68.46-.23.31-1.23.26-1.58-.03-.15-.11-.22-.23-.25-.12-.02-.44,0-.58.69Z"/>
          <path class="cls-9" d="m264.5,77.5c.16-.75.12-2.55.48-3.43.02-1.16.63-3.05.71-3.7.11-.54.24-1.79.53-2.61.05.25.54,1.27.61,2.72.01.5.15.92.59,1.41-.04.99-.25,2.4-.4,2.44-.07.02-.15.02-.15.2,0,.16.06.09.01.39-.27,1.52-.46,2.32-.46,2.32-.09.33-.19.19-.25.31-.05.1.08.04.05.41-.02.19-.05.68-.34,2.02-.21,1.19-2.06,1.1-1.74-.92.22-1.37.34-1.33.34-1.55Z"/>
        </g>
      </g>
      <g>
        <path class="cls-1" d="m220.91,120.9c1.28-1.73-12.12,67.31,1.37,78.05,9.78,7.78,58.69-26.82,80.72-55.96"/>
        <g>
          <path class="cls-10" d="m309.19,128.61l-.25.43c-.31-.51-2.27-.72-2.74.72-.8-.64-1.74-.16-1.96.81-.2.84-.35,1.31-1.26,2.48-1.13,1.45-2.59,3.04-2.47,5.51.01.22-.19.36-.32.35-.26-.02-.83-.41-1.12.11l-1.01,1.93c-.36.69.36,1.77,3.57,3.43,3.34,1.73,4.67,2.37,5.4,1,.72-1.35.9-1.73.9-1.73.21-.44-.04-.66-.19-.82-.09-.1-.05-.28.06-.37.17-.13,1.8-1.46,2.72-2.86.86-1.3,1.56-1.62,1.9-2.61.4-1.18,2.36-4.66,2.93-5.71.55-1.03,1.08-2.86,2.29-5.04,1.15-2.08-1.29-3.36-2.16-1.41-.69,1.54-.9,1.5-1.11,2.05-.36.96-.99,1.91-1.41,2.59-.19.31-.28.72-.87,1.61.15-.58.02-.68.06-1.6.02-1.37-2.39-1.82-2.97-.86Z"/>
          <path class="cls-9" d="m303.41,141.8c-1.35-.66-3.52-2.11-3.69-2.3-.16-.17-.36-.09-.49.22-.09.21-.64,1.25-.64,1.25-.24.46-.06,1.25,3.49,3.1,3.68,1.89,4.23,1.99,4.79.9l.66-1.36c.03-.09,0-.18-.05-.26-.15-.21-.67.11-4.08-1.55Z"/>
          <path class="cls-9" d="m304.69,138.48c-.09.03-.2,0-.23-.05-.17-.25.15-.42.27-.62.11-.16.75-1.02.71-1.48-.04-.46-.12-1.36-.93-2.08-.15-.13-.52-.69-.43-1.21.06-.37-.29-.48-.45-.23-.44.69-.86.75-2.02,2.99-.83,1.84-1.36,3.69.96,5.04,1.29.72,3.14,1.61,3.9,1.77.77.15,1.05-.39,1.55-.74,1.9-1.54,2.53-2.9,3.35-3.88.32-.38.66-.63.56-1.38-.21-1.61.25-3.18.18-3.65-.03-.32-.07-.43-.14-.51-.11-.14,0-.39-.06-.69-.03-.19-.04-.27-.03-.45-.36.06-.16.39-.87.37-.15,0-.34-.19-.42-.28-.16-.25.06-.75.12-.96.05-.17.12-.36.17-.55.15-.5.69-.39.53-.5-.79-.52-1.21.69-1.34,1.09-.16.39-.13.78-.23,1.2.04.22-.38,1.08.23,1.39.09.06.31.16.08.37-.18.16-.67,1.12-.47,1.41.09.13.14.24.13.41,0,.17-.13.21-.28.11-.18-.13-.46-.25-.67,0-.19.21-.26.33-.25.56,0,.24.05.7-.05.85-.11.11-.26.16-.25-.22,0-.34-.26-.9-1.01-.7-1.11.3-1.05.05-2.4,2.44-.06.11-.12.17-.22.2Z"/>
          <path class="cls-9" d="m306.73,134.46c.24.53.25.85.8.75.09,0,.15-.11.24-.45.05-.18-.32-1.05-.99-.81-.12.08-.23.18-.05.5Z"/>
          <path class="cls-9" d="m305.19,134.31c-.16.16.58.94.64.96.1.03.2.06.44-.32.09-.18-.08-.69-.48-.85-.27-.11-.56.18-.59.21Z"/>
          <path class="cls-9" d="m308.3,133.89c.1.27.25.84.5.83.29-.01.49-.11.55-.58.04-.32-.13-1.05-.94-.78-.15.13-.24.16-.11.53Z"/>
          <path class="cls-9" d="m306.03,130.12c-1.02-.89-1.6.44-1.56,1.12.06,1.09-.19,1.87,0,2.33.1.26.46.74.6.52.13-.2.4-.3.56-.35.07-.02.35.21.38.14.01-.06-.36-.14-.34-1.15.02-.43.11-1.33.19-1.62.06-.23.07-.48.21-.86.02-.07,0-.1-.03-.12Z"/>
          <path class="cls-9" d="m308.68,129.53c-.41.9-.65,1.23-.77,1.44-.68,1.03-.51,1.72-.33,2.12.09.33.23.48.28.73.04.2.2.47-.12.19-.16-.14-.2-.35-.56-.39-.24.02-.37-.02-.74.21-.03.03-.06.07-.06.03-.03-.14-.55-.54-.31-1.57.32-1.37.3-2.06.38-2.33.02-.05.05-.12.09-.17.21-.36.35-.46.5-.53.16-.07,1-.41,1.56.08.06.07.09.14.06.19Z"/>
          <path class="cls-9" d="m311.56,128.95c.04-.09-1.18-.91-1.99-.18-.4.36-.4.66-.65,1.1-.36.78-.73,1.37-.89,1.68-.23.46-.32.87-.18,1.25.07.19.14.58.31.43.17-.15.26-.25.65-.25.5,0,.62.41.65.11.02-.26.02-.28-.03-.58-.16-1.18.61-4.27,1.96-3.49.1.04.22,0,.18-.08Z"/>
          <path class="cls-9" d="m311.79,130.84c.09-.16.05-.34.06-.45.02-.21.23-.88-.28-.79-.5.1-.63,1.1-.69,1.44-.02.15.04.24.16.3.11.06.42.13.75-.5Z"/>
          <path class="cls-9" d="m316.58,127.48c-.36.67-.82,2.42-1.41,3.16-.34,1.11-1.45,2.75-1.7,3.36-.26.49-.72,1.66-1.23,2.37.02-.26-.16-1.37.17-2.78.12-.48.11-.93-.18-1.52.31-.94.91-2.24,1.06-2.23.07,0,.15.02.2-.16.04-.16-.03-.1.09-.37.68-1.39,1.08-2.1,1.08-2.1.18-.29.24-.13.32-.23.08-.08-.06-.06.07-.4.07-.18.23-.64.89-1.85.53-1.08,2.28-.49,1.41,1.36-.59,1.26-.7,1.19-.76,1.39Z"/>
        </g>
      </g>
      <g>
        <path class="cls-4" d="m421.03,123.94c4.79,28.01-35.91,55.86-77.51,39.85"/>
        <g>
          <path class="cls-8" d="m413.44,110.31l.27.42c.28-.53,2.23-.84,2.77.57.76-.68,1.73-.25,2,.71.24.83.42,1.29,1.39,2.41,1.21,1.39,2.74,2.9,2.75,5.38,0,.22.2.35.34.33.25-.03.81-.45,1.12.05l1.11,1.88c.4.67-.27,1.79-3.39,3.61-3.25,1.9-4.54,2.61-5.34,1.28-.79-1.31-.99-1.68-.99-1.68-.24-.43,0-.66.15-.83.09-.1.04-.28-.08-.36-.17-.12-1.87-1.36-2.87-2.71-.93-1.25-1.64-1.53-2.03-2.51-.46-1.16-2.6-4.53-3.22-5.55-.61-1-1.23-2.8-2.54-4.92-1.25-2.02,1.11-3.42,2.09-1.52.77,1.51.98,1.45,1.21,1.99.41.94,1.09,1.86,1.54,2.51.21.3.31.7.95,1.56-.18-.57-.05-.68-.15-1.59-.09-1.36,2.29-1.94,2.92-1.01Z"/>
          <path class="cls-9" d="m419.89,123.18c1.31-.73,3.4-2.29,3.56-2.49.15-.18.36-.11.5.19.1.21.7,1.21.7,1.21.26.44.12,1.25-3.32,3.28-3.58,2.08-4.12,2.2-4.74,1.15l-.73-1.33c-.03-.09-.02-.17.04-.26.14-.22.68.08,4-1.76Z"/>
          <path class="cls-9" d="m418.45,119.93c.09.02.2-.01.23-.07.16-.25-.17-.42-.31-.61-.11-.16-.8-.98-.78-1.44.02-.46.05-1.37.82-2.13.15-.14.49-.72.37-1.23-.08-.36.26-.5.44-.25.48.66.9.7,2.18,2.89.93,1.79,1.55,3.62-.7,5.09-1.25.78-3.05,1.78-3.81,1.97-.76.19-1.07-.34-1.58-.66-1.97-1.44-2.68-2.77-3.55-3.7-.34-.37-.69-.59-.63-1.35.13-1.62-.41-3.16-.37-3.64.01-.32.05-.43.11-.52.1-.14-.02-.39.03-.69.02-.19.03-.28,0-.46.36.04.18.38.88.33.15-.01.33-.21.41-.3.15-.26-.1-.75-.17-.95-.06-.16-.14-.36-.2-.54-.18-.49-.71-.36-.56-.47.77-.56,1.24.63,1.39,1.02.18.38.17.78.3,1.19-.03.23.43,1.06-.15,1.4-.09.07-.31.17-.06.37.19.15.73,1.09.54,1.38-.09.14-.13.25-.11.41.02.17.14.2.28.09.18-.14.45-.28.67-.04.2.2.28.32.27.55,0,.24,0,.7.09.85.11.1.27.14.23-.23-.03-.34.21-.91.98-.75,1.12.24,1.05,0,2.52,2.31.07.11.13.16.23.19Z"/>
          <path class="cls-9" d="m416.2,116.03c-.21.54-.2.86-.76.8-.09,0-.16-.1-.26-.43-.06-.18.27-1.07.95-.86.12.07.24.17.08.5Z"/>
          <path class="cls-9" d="m417.73,115.8c.17.15-.53.97-.59.99-.1.03-.19.07-.45-.3-.1-.17.05-.69.44-.87.27-.12.57.15.6.18Z"/>
          <path class="cls-9" d="m414.6,115.54c-.09.28-.21.85-.45.86-.29,0-.49-.08-.58-.55-.06-.32.07-1.05.9-.83.16.12.25.15.14.52Z"/>
          <path class="cls-9" d="m416.67,111.66c.97-.94,1.62.36,1.62,1.04,0,1.09.29,1.86.13,2.33-.09.26-.42.76-.58.55-.14-.19-.42-.27-.58-.32-.07-.02-.34.23-.38.16-.02-.05.36-.16.28-1.17-.04-.43-.18-1.32-.27-1.61-.08-.22-.1-.48-.25-.85-.03-.07,0-.1.03-.12Z"/>
          <path class="cls-9" d="m413.99,111.2c.46.88.71,1.19.84,1.4.73.99.6,1.69.43,2.1-.07.33-.21.49-.25.74-.03.2-.17.48.13.18.15-.15.18-.36.54-.41.24,0,.36-.04.75.17.03.03.06.07.06.03.02-.14.52-.57.23-1.58-.39-1.35-.4-2.04-.5-2.31-.02-.05-.06-.11-.1-.16-.23-.35-.37-.45-.53-.51-.16-.06-1.02-.36-1.56.17-.05.07-.09.14-.05.19Z"/>
          <path class="cls-9" d="m411.09,110.78c-.05-.08,1.14-.97,1.98-.28.42.34.44.64.71,1.07.4.76.8,1.33.98,1.63.25.45.36.85.25,1.24-.06.2-.1.59-.28.45-.18-.14-.27-.23-.66-.22-.5.02-.6.44-.64.14-.03-.26-.03-.27,0-.59.1-1.19-.83-4.23-2.14-3.38-.1.04-.22,0-.19-.07Z"/>
          <path class="cls-9" d="m410.96,112.68c-.1-.15-.07-.33-.08-.45-.03-.21-.27-.87.24-.8.51.07.69,1.06.76,1.4.02.15-.03.25-.14.31-.11.06-.41.15-.77-.46Z"/>
          <path class="cls-9" d="m406,109.57c.4.65.95,2.38,1.58,3.09.4,1.09,1.59,2.67,1.87,3.26.28.48.81,1.62,1.35,2.3-.04-.25.09-1.38-.31-2.77-.15-.48-.15-.92.1-1.53-.36-.92-1.02-2.19-1.18-2.18-.07,0-.15.03-.21-.15-.05-.15.03-.1-.11-.37-.75-1.35-1.19-2.04-1.19-2.04-.19-.28-.24-.12-.33-.21-.08-.08.06-.07-.09-.4-.08-.17-.27-.63-.98-1.8-.59-1.06-2.31-.37-1.34,1.44.66,1.22.76,1.15.83,1.35Z"/>
        </g>
      </g>
      <g>
        <path class="cls-1" d="m282.26,198.86c56.33.05,107.5-39.35,114.67-81.13"/>
        <g>
          <path class="cls-10" d="m395.41,102.17v.5c-.53-.3-2.35.47-2.06,1.95-1-.17-1.6.7-1.33,1.66.23.83.33,1.31.1,2.78-.29,1.82-.8,3.91.5,6.02.12.18,0,.4-.11.46-.23.11-.93.05-.93.63l.05,2.18c.02.78,1.17,1.37,4.78,1.27,3.76-.1,5.23-.18,5.21-1.74-.02-1.53-.05-1.95-.05-1.95-.02-.49-.35-.56-.56-.63-.13-.04-.18-.22-.13-.35.08-.2.87-2.15,1-3.82.13-1.55.58-2.17.4-3.2-.22-1.23-.19-5.22-.2-6.41-.01-1.17-.44-3.03-.44-5.52,0-2.38-2.75-2.32-2.57-.19.14,1.69-.07,1.75.02,2.33.15,1.02.06,2.15.02,2.94-.02.36.1.76.02,1.83-.15-.58-.31-.6-.72-1.43-.64-1.21-2.97-.44-3.01.69Z"/>
          <path class="cls-9" d="m396.73,116.51c-1.5.08-4.1-.15-4.34-.23-.23-.07-.36.09-.32.43.02.23.05,1.4.05,1.4.01.51.55,1.13,4.55,1.03,4.14-.13,4.66-.31,4.63-1.53l-.08-1.51c-.02-.09-.08-.16-.17-.2-.24-.11-.53.42-4.32.62Z"/>
          <path class="cls-9" d="m396.24,112.98c-.07.07-.18.1-.23.07-.27-.13-.08-.44-.06-.68.01-.2.16-1.26-.1-1.64-.26-.38-.76-1.13-1.83-1.37-.2-.04-.79-.35-.97-.85-.12-.35-.48-.28-.51.02-.06.81-.39,1.07-.32,3.6.16,2.01.6,3.89,3.28,3.95,1.47,0,3.53-.11,4.27-.34.75-.24.73-.85.99-1.4.91-2.27.81-3.77,1.06-5.02.1-.49.28-.87-.17-1.48-.97-1.31-1.32-2.9-1.61-3.28-.18-.27-.27-.34-.37-.38-.16-.06-.19-.34-.39-.57-.12-.15-.17-.22-.25-.38-.29.23.05.42-.58.75-.14.07-.39,0-.5-.04-.26-.14-.31-.69-.36-.9-.03-.17-.07-.37-.11-.57-.11-.51.41-.68.23-.69-.95-.07-.72,1.19-.64,1.61.04.42.26.75.38,1.17.14.18.19,1.13.87,1.1.11.01.35-.02.25.29-.08.23-.04,1.31.27,1.46.14.07.24.14.31.29.07.15-.01.24-.19.23-.22-.02-.53,0-.59.32-.07.28-.07.42.06.61.12.21.38.59.37.77-.04.15-.15.26-.32-.08-.16-.3-.67-.66-1.22-.12-.82.8-.89.55-.92,3.3,0,.13-.02.2-.09.28Z"/>
          <path class="cls-9" d="m396.08,108.48c.47.35.63.62,1.07.27.08-.04.08-.17,0-.51-.05-.18-.79-.76-1.26-.23-.07.13-.11.27.2.46Z"/>
          <path class="cls-9" d="m394.66,109.09c-.06.22.96.55,1.03.53.1-.03.2-.04.23-.49,0-.2-.4-.56-.83-.51-.29.04-.41.43-.42.47Z"/>
          <path class="cls-9" d="m397.18,107.22c.22.19.63.61.84.49.25-.15.37-.33.2-.78-.11-.3-.62-.85-1.2-.23-.07.19-.13.26.16.52Z"/>
          <path class="cls-9" d="m393.37,105.02c-1.32-.28-1.19,1.16-.83,1.73.58.92.74,1.73,1.12,2.04.21.18.76.43.78.16.02-.23.21-.45.32-.58.05-.05.41.01.4-.06-.01-.06-.39.05-.85-.84-.19-.39-.55-1.22-.62-1.51-.05-.23-.17-.46-.23-.86-.02-.08-.06-.08-.09-.09Z"/>
          <path class="cls-9" d="m395.41,103.22c.08.99.03,1.39.02,1.63-.1,1.22.39,1.75.74,2.01.24.24.44.31.6.5.13.15.4.32-.02.22-.21-.05-.34-.21-.68-.07-.2.13-.33.16-.54.54-.01.04-.02.09-.04.06-.09-.11-.74-.21-1.03-1.22-.38-1.35-.73-1.94-.79-2.23,0-.05-.01-.13,0-.19.01-.42.08-.57.18-.71.1-.13.67-.84,1.41-.68.08.03.15.07.15.14Z"/>
          <path class="cls-9" d="m397.65,101.33c0-.1-1.48-.22-1.83.81-.17.51-.03.78-.04,1.28.06.86.02,1.55.03,1.9.02.52.14.92.44,1.18.15.14.4.44.48.23.08-.21.11-.34.45-.53.44-.25.74.06.62-.22-.11-.23-.12-.25-.31-.5-.71-.96-1.53-4.03.03-4,.11-.02.19-.12.12-.16Z"/>
          <path class="cls-9" d="m398.76,102.87c0-.18-.12-.32-.17-.43-.09-.19-.23-.88-.62-.55-.39.33-.02,1.27.09,1.59.06.14.16.19.28.19.12,0,.43-.09.41-.8Z"/>
          <path class="cls-9" d="m401.33,97.61c0,.76.45,2.52.29,3.45.24,1.13.06,3.11.13,3.76.01.56.17,1.8.06,2.67-.1-.23-.81-1.12-1.2-2.51-.12-.48-.36-.87-.89-1.24-.18-.98-.29-2.4-.15-2.47.07-.03.14-.05.1-.23-.04-.16-.08-.07-.1-.37-.08-1.54-.07-2.36-.07-2.36.01-.34.14-.23.17-.35.03-.11-.08-.02-.14-.39-.02-.19-.11-.68-.12-2.05-.06-1.21,1.76-1.53,1.9.51.09,1.39-.04,1.38,0,1.58Z"/>
        </g>
      </g>
      <g>
        <line class="cls-2" x1="464.26" y1="107.27" x2="452.55" y2="195.61"/>
        <g>
          <path class="cls-6" d="m451.37,211.18l.09-.49c.47.38,2.38-.1,2.33-1.61.97.32,1.69-.44,1.57-1.43-.1-.85-.12-1.35.34-2.76.57-1.75,1.4-3.74.44-6.02-.09-.2.05-.4.18-.44.25-.07.92.1,1.01-.48l.29-2.16c.1-.77-.95-1.54-4.53-2-3.73-.48-5.2-.63-5.42.91-.21,1.51-.26,1.93-.26,1.93-.05.48.26.6.46.71.12.06.14.25.07.37-.11.18-1.19,1.98-1.58,3.62-.37,1.51-.91,2.05-.89,3.1.03,1.25-.63,5.19-.8,6.37-.17,1.16-.04,3.06-.42,5.52-.37,2.35,2.36,2.72,2.51.59.12-1.69.34-1.72.34-2.3,0-1.03.28-2.13.44-2.91.07-.36.02-.77.27-1.81.06.6.22.64.49,1.52.44,1.29,2.86.9,3.08-.21Z"/>
          <path class="cls-9" d="m452.29,196.81c1.49.16,4.03.79,4.25.9.21.11.37-.04.38-.37.01-.23.17-1.39.17-1.39.07-.51-.37-1.2-4.34-1.72-4.11-.52-4.65-.42-4.81.79l-.16,1.51c0,.09.05.17.14.23.22.15.59-.33,4.36.06Z"/>
          <path class="cls-9" d="m452.23,200.37c.08-.06.19-.07.24-.03.24.17,0,.45-.05.68-.04.19-.36,1.21-.16,1.63.2.42.58,1.24,1.59,1.64.19.07.73.47.82.99.07.37.43.36.5.06.18-.8.55-1,.88-3.51.15-2.01.02-3.93-2.62-4.41-1.46-.23-3.51-.44-4.27-.33-.78.12-.85.73-1.2,1.23-1.25,2.1-1.39,3.59-1.83,4.79-.17.47-.41.81-.06,1.49.75,1.44.85,3.07,1.08,3.49.14.29.21.38.31.43.15.09.13.37.3.63.09.17.13.24.18.42.32-.18.02-.42.69-.65.15-.05.39.06.49.12.23.18.2.73.21.95,0,.17.01.38.02.58.03.52-.51.61-.33.65.92.22.9-1.06.88-1.49.02-.42-.14-.78-.19-1.21-.11-.2-.02-1.15-.69-1.23-.11-.03-.35-.04-.2-.32.11-.21.24-1.28-.04-1.48-.13-.09-.21-.18-.26-.34-.05-.16.05-.24.22-.2.21.06.52.08.63-.22.11-.27.13-.4.04-.61-.08-.22-.28-.64-.24-.82.07-.14.19-.24.31.12.11.32.55.76,1.19.31.94-.66.97-.4,1.42-3.11.02-.13.05-.2.14-.26Z"/>
          <path class="cls-9" d="m451.68,204.84c-.41-.42-.52-.71-1.01-.43-.09.03-.11.15-.07.5.02.18.66.88,1.21.42.09-.11.15-.25-.12-.49Z"/>
          <path class="cls-9" d="m453.18,204.46c.1-.21-.87-.69-.93-.68-.1.01-.21.01-.3.45-.03.2.31.62.75.63.29,0,.47-.36.49-.4Z"/>
          <path class="cls-9" d="m450.4,205.92c-.19-.22-.53-.71-.75-.61-.27.11-.42.26-.32.73.07.31.48.94,1.15.41.1-.18.17-.24-.08-.54Z"/>
          <path class="cls-9" d="m453.82,208.68c1.26.48,1.35-.96,1.09-1.58-.43-1-.46-1.83-.79-2.19-.18-.21-.68-.54-.75-.28-.06.23-.28.42-.4.52-.06.04-.41-.08-.41,0,0,.06.39.01.71.96.13.41.35,1.29.38,1.59.02.23.1.48.1.88,0,.08.04.09.07.1Z"/>
          <path class="cls-9" d="m451.53,210.14c.08-.99.19-1.38.23-1.62.29-1.19-.11-1.79-.42-2.1-.2-.28-.39-.37-.52-.59-.1-.17-.35-.38.05-.22.2.08.3.26.66.17.22-.1.35-.11.62-.45.02-.04.03-.09.05-.05.08.12.7.32.83,1.37.17,1.39.42,2.03.44,2.32,0,.05,0,.13-.02.19-.08.41-.17.55-.29.67-.12.12-.8.73-1.5.45-.08-.05-.13-.1-.13-.16Z"/>
          <path class="cls-9" d="m449.02,211.67c-.01.1,1.42.45,1.93-.52.25-.48.15-.76.24-1.26.07-.86.22-1.54.26-1.88.06-.51,0-.93-.25-1.24-.13-.16-.33-.5-.44-.3-.11.2-.16.32-.52.46-.47.18-.73-.17-.65.12.07.25.08.26.22.54.56,1.06.88,4.22-.65,3.95-.11,0-.21.08-.14.14Z"/>
          <path class="cls-9" d="m448.16,209.97c-.04.18.06.33.1.45.06.2.09.91.53.65.44-.26.22-1.25.15-1.59-.04-.15-.13-.21-.25-.23-.12-.02-.44.03-.53.73Z"/>
          <path class="cls-9" d="m444.81,214.77c.11-.76-.05-2.56.25-3.46-.06-1.16.42-3.08.45-3.74.07-.55.11-1.81.35-2.64.07.25.62,1.23.79,2.67.05.5.22.91.69,1.37.03.99-.09,2.42-.24,2.46-.07.02-.15.03-.13.21.01.16.07.09.04.38-.16,1.53-.3,2.34-.3,2.34-.06.34-.18.21-.22.32-.04.1.08.04.07.4,0,.19,0,.69-.2,2.04-.13,1.2-1.98,1.24-1.79-.8.13-1.38.25-1.35.24-1.57Z"/>
        </g>
      </g>
      <g>
        <path class="cls-3" d="m398.04,196.2c56.54-1.58,69.44-42.59,66.96-90.23"/>
        <g>
          <path class="cls-5" d="m462.58,90.52l.03.5c-.54-.26-2.3.63-1.91,2.09-1.01-.1-1.55.8-1.21,1.74.29.81.42,1.29.28,2.76-.16,1.83-.53,3.95.91,5.97.13.17.04.4-.08.47-.22.13-.92.11-.88.7l.2,2.17c.07.77,1.26,1.29,4.86.94,3.75-.36,5.21-.54,5.08-2.09-.13-1.52-.18-1.94-.18-1.94-.06-.48-.39-.53-.6-.59-.13-.03-.2-.21-.15-.34.07-.2.72-2.2.74-3.88.02-1.56.43-2.2.18-3.22-.3-1.21-.54-5.2-.64-6.39-.09-1.16-.64-2.99-.81-5.48-.17-2.37-2.9-2.13-2.58-.01.26,1.67.05,1.75.18,2.32.22,1.01.21,2.14.22,2.94,0,.36.16.75.14,1.82-.19-.57-.35-.58-.81-1.38-.72-1.16-2.99-.24-2.96.89Z"/>
          <path class="cls-9" d="m464.88,104.73c-1.49.18-4.1.13-4.35.07-.23-.06-.35.12-.29.45.04.23.14,1.39.14,1.39.05.51.63,1.09,4.61.72,4.12-.41,4.63-.62,4.52-1.84l-.18-1.5c-.03-.09-.09-.15-.18-.19-.24-.1-.5.46-4.27.91Z"/>
          <path class="cls-9" d="m464.15,101.25c-.06.07-.17.11-.23.08-.28-.11-.11-.44-.11-.67,0-.2.08-1.26-.21-1.63-.29-.36-.84-1.08-1.91-1.24-.2-.02-.81-.3-1.02-.78-.15-.34-.5-.25-.5.05,0,.82-.32,1.1-.08,3.61.3,2,.86,3.84,3.54,3.72,1.47-.1,3.52-.35,4.24-.63.73-.29.67-.9.9-1.46.75-2.33.56-3.81.71-5.08.06-.5.22-.89-.28-1.47-1.05-1.24-1.52-2.8-1.83-3.17-.2-.25-.29-.32-.39-.35-.17-.05-.21-.33-.43-.55-.13-.14-.19-.21-.27-.37-.27.25.08.42-.52.78-.13.08-.39.03-.51,0-.27-.12-.36-.66-.42-.87-.04-.17-.1-.37-.15-.56-.14-.5.37-.71.18-.71-.95,0-.64,1.24-.53,1.65.07.41.31.73.45,1.14.16.17.27,1.11.94,1.04.11,0,.35-.04.27.27-.06.23.05,1.3.37,1.44.15.06.25.12.33.27.08.15,0,.24-.17.24-.22,0-.52.04-.57.36-.05.28-.04.42.1.6.13.2.42.56.42.74-.03.15-.13.27-.33-.05-.18-.29-.71-.62-1.23-.04-.77.85-.85.61-.69,3.35,0,.13,0,.21-.07.28Z"/>
          <path class="cls-9" d="m463.69,96.77c.49.32.67.58,1.08.2.08-.05.07-.17-.04-.51-.06-.18-.84-.71-1.27-.14-.06.13-.1.27.23.45Z"/>
          <path class="cls-9" d="m462.31,97.48c-.05.23,1,.48,1.06.46.1-.03.2-.06.19-.51-.02-.2-.44-.53-.87-.45-.29.06-.38.45-.39.5Z"/>
          <path class="cls-9" d="m464.69,95.44c.23.17.67.57.87.43.24-.17.35-.35.15-.79-.13-.29-.67-.81-1.21-.15-.06.19-.11.27.19.51Z"/>
          <path class="cls-9" d="m460.75,93.5c-1.34-.19-1.11,1.24-.71,1.79.64.88.85,1.68,1.26,1.96.23.16.79.37.79.11,0-.24.18-.47.28-.6.04-.06.41-.02.4-.09-.02-.05-.38.08-.91-.78-.22-.37-.63-1.18-.72-1.47-.07-.22-.2-.44-.29-.84-.02-.07-.06-.08-.09-.08Z"/>
          <path class="cls-9" d="m462.65,91.57c.15.98.12,1.38.14,1.63-.01,1.23.5,1.72.87,1.95.25.23.46.28.63.46.14.14.42.29,0,.22-.21-.03-.35-.19-.68-.02-.19.14-.32.18-.51.58,0,.04-.01.09-.04.06-.1-.1-.75-.16-1.11-1.15-.48-1.32-.86-1.89-.94-2.17-.01-.05-.02-.12-.02-.19-.02-.42.04-.58.13-.72.09-.14.61-.89,1.36-.78.09.03.15.06.16.13Z"/>
          <path class="cls-9" d="m464.77,89.52c0-.1-1.49-.12-1.77.93-.14.52.02.78.05,1.28.12.85.12,1.55.16,1.9.06.51.2.9.52,1.15.16.12.43.41.49.2.06-.21.09-.35.41-.56.42-.28.75,0,.61-.26-.13-.23-.14-.24-.34-.48-.78-.91-1.8-3.92-.24-3.99.11-.02.18-.13.11-.16Z"/>
          <path class="cls-9" d="m465.98,90.99c0-.18-.14-.31-.19-.41-.1-.19-.29-.87-.66-.51-.37.36.06,1.27.2,1.58.07.13.17.18.3.17.12-.01.42-.12.36-.83Z"/>
          <path class="cls-9" d="m468.18,85.57c.06.76.62,2.48.53,3.42.31,1.11.27,3.1.39,3.74.05.55.29,1.79.25,2.66-.12-.23-.88-1.06-1.37-2.43-.16-.47-.42-.84-.98-1.18-.25-.96-.45-2.38-.32-2.45.06-.04.14-.06.08-.24-.05-.16-.08-.07-.12-.36-.18-1.53-.23-2.35-.23-2.35-.01-.34.13-.24.15-.36.02-.11-.09-.02-.16-.37-.04-.19-.15-.67-.26-2.03-.14-1.2,1.65-1.65,1.93.38.18,1.38.06,1.37.12,1.58Z"/>
        </g>
      </g>
    </g>
  </g>
</svg>