<?xml version="1.0" encoding="UTF-8"?>
<svg id="Layer_2" data-name="Layer 2" xmlns="http://www.w3.org/2000/svg" viewBox="0 0 548.13 214.84">
  <defs>
    <style>
      .cls-1 {
        fill: none;
      }

      .cls-1,
      .cls-2 {
        stroke-width: 0px;
      }

      .cls-2 {
        fill: #e04e39;
      }
    </style>
  </defs>
  <g id="Layer_2-2" data-name="Layer 2">
    <g>
      <rect class="cls-1" x="0" width="548.13" height="214.44" />
      <g id="Layer_5" data-name="Layer 5">
        <g id="old">
          <path class="cls-2"
            d="m538.78,148.03s-13.34,10.37-25.07,9.21c-11.74-1.16-8.05-27.47-8.05-27.47,0,0,2.53-24.13-4.38-26.16-6.89-2.02-15.4,6.29-15.4,6.29,0,0-10.58,11.77-15.64,26.78l-1.39.46s1.61-26.32-.22-32.32c-1.38-2.99-14.03-2.76-16.1,2.54-2.08,5.31-12.2,42.24-12.9,57.71,0,0-19.78,16.85-37.03,19.61-17.26,2.78-21.4-8.07-21.4-8.07,0,0,46.93-13.15,45.32-50.78-1.6-37.62-37.85-23.69-41.94-20.62-3.97,2.99-25.16,15.8-31.33,51.31-.21,1.2-.57,6.47-.57,6.47,0,0-18.17,12.21-28.3,15.45,0,0,28.3-47.78-6.2-69.47-9.7-5.86-18.16-.46-23.19,4.48-3.09,3.04,41.82-46.25,31.46-90.35-4.95-20.98-15.4-23.23-25-19.82-14.57,5.76-20.09,14.3-20.09,14.3,0,0-18.88,27.48-23.25,68.33-4.37,40.84-10.81,90.24-10.81,90.24,0,0-8.98,8.77-17.26,9.23-8.29.45-4.6-24.71-4.6-24.71,0,0,6.44-38.3,6-44.77-.48-6.46-.93-9.92-8.52-12.23-7.6-2.32-15.88,7.38-15.88,7.38,0,0-21.84,33.23-23.68,38.3l-1.17,2.09-1.14-1.4s15.4-45.24.7-45.92c-14.73-.7-24.39,16.16-24.39,16.16,0,0-16.8,28.16-17.49,31.39l-1.14-1.38s6.89-32.77,5.52-40.86c-1.39-8.07-8.98-6.46-8.98-6.46,0,0-9.66-1.16-12.2,5.08-2.53,6.24-4.62,41.3-12.55,55.14,0,0-12.29,20.76-40.38,23.09-15.86.24-14.24-10.09-14.24-10.09,0,0,58.21-19.99,42.33-59.45-7.13-10.16-15.4-13.35-27.14-13.13-11.75.24-26.29,7.41-35.72,28.65-4.52,10.11-6.14,19.75-7.08,27,0,0-10.17,2.1-15.69-2.52-5.53-4.62-8.37,0-8.37,0,0,0-9.48,12.13-.05,15.8,9.44,3.7,24.16,5.42,24.16,5.42,2.23,10.48,8.19,19.78,16.78,26.2,17.26,13.15,50.37-1.21,50.37-1.21l13.57-7.63s.46,12.49,10.36,14.31c9.89,1.83,14.03-.02,31.29-42.04,10.12-21.47,10.82-20.31,10.82-20.31,1.14-.24-6.67,40.84-3.69,51.92,2.99,11.1,16.1,9.94,16.1,9.94,0,0,7.13,1.38,12.88-18.94,5.75-20.31,16.8-42.7,16.8-42.7,1.37,0-3.46,42,3.9,55.4,7.36,13.4,26.47,4.49,26.47,4.49,0,0,13.35-6.74,15.42-8.83,0,0,15.83,13.53,38.17,11.08,49.94-9.87,67.71-23.19,67.71-23.19,0,0,8.57,21.81,35.16,23.84,30.35,2.3,46.93-16.85,46.93-16.85,0,0-.24,12.46,10.34,16.85,10.6,4.38,17.72-20.29,17.72-20.29l17.71-48.97c1.61,0,2.53,31.84,20.03,36.92,17.48,5.08,40.25-11.9,40.25-11.9,0,0,5.52-3.05,4.6-12.27-.93-9.25-9.21-5.79-9.21-5.79h-.04Zm-460.81-23.11c6.2,6,3.91,18.92-7.83,26.99-11.72,8.1-17.02,6.47-17.02,6.47.7-27.47,18.66-39.48,24.85-33.46ZM306.88,30.07c3.91,20.77-34.27,82.63-34.27,82.63.45-13.85,14.02-60.7,14.02-60.7,0,0,16.32-42.7,20.25-21.93h0Zm-37.74,157.64s-2.99-10.16,5.52-38.53c8.52-28.39,28.53-17.32,28.53-17.32,0,0,13.8,10.61,2.99,39.01-10.81,28.38-37.04,16.85-37.04,16.85h0Zm116.41-55.62c9.43-17.31,16.79-7.85,16.79-7.85,0,0,8.05,8.77-1.15,21.93-9.21,13.15-22.54,12.24-22.54,12.24,0,0-2.53-9.01,6.9-26.31h0Z" />
          <path class="cls-2"
            d="m479.72,202.13v-3.31h2.09c.29,0,.57.04.88.06.31.04.6.12.84.23.26.11.46.26.61.46.17.2.24.48.24.82,0,.77-.22,1.27-.68,1.47-.56.22-1.17.32-1.77.29h-2.21v-.02Zm-2.49-5.26v12.6h2.49v-5.39h1.55l3.07,5.39h2.63l-3.37-5.51c.44-.05.88-.13,1.29-.28.4-.13.76-.33,1.04-.6.31-.26.53-.6.71-1.01.2-.48.28-.98.27-1.49,0-1.37-.43-2.33-1.28-2.88-.85-.56-2.08-.84-3.66-.84h-4.74.01Zm-3.99,6.31c0-1.29.21-2.47.66-3.54.44-1.06,1.04-1.99,1.8-2.77.77-.81,1.71-1.44,2.74-1.87s2.14-.65,3.26-.64c1.11,0,2.22.21,3.25.64s1.97,1.06,2.74,1.87c1.62,1.7,2.53,3.97,2.49,6.33,0,1.29-.23,2.47-.66,3.57-.43,1.04-1.05,1.99-1.82,2.81-.77.81-1.7,1.44-2.74,1.88-1.03.43-2.14.65-3.25.64-1.17,0-2.27-.22-3.32-.66-1.01-.43-1.92-1.06-2.67-1.84-.78-.81-1.39-1.77-1.81-2.81-.45-1.14-.67-2.34-.66-3.57h0v-.02Zm-3.08,0c0,1.73.33,3.29.95,4.67.65,1.4,1.48,2.59,2.54,3.57s2.3,1.73,3.69,2.25c1.39.53,2.85.78,4.36.78s2.99-.27,4.37-.78c1.39-.53,2.61-1.27,3.69-2.25,1.06-.99,1.91-2.16,2.54-3.57.62-1.38.93-2.93.93-4.67s-.31-3.25-.93-4.63c-.6-1.33-1.45-2.54-2.53-3.53-1.07-1-2.33-1.77-3.7-2.27-1.39-.54-2.85-.79-4.37-.79-2.97,0-5.84,1.07-8.05,3.07-1.12,1.04-2.02,2.31-2.61,3.71-.6,1.4-.9,2.93-.87,4.46h-.01Z" />
        </g>
      </g>
    </g>
  </g>
</svg>
