<?xml version="1.0" encoding="UTF-8"?>
<svg id="Layer_2" data-name="Layer 2" xmlns="http://www.w3.org/2000/svg" viewBox="0 0 449.87 180.21">
  <defs>
    <style>
      .cls-1 {
        fill: none;
        stroke: #000;
        stroke-width: .66px;
      }

      .cls-2 {
        fill: #e0e0e0;
        stroke-width: 0px;
      }
    </style>
  </defs>
  <g id="Layer_5" data-name="Layer 5">
    <g>
      <g id="old">
        <path class="cls-2" d="m441.18,125.83s-10.92,8.49-20.53,7.54c-9.61-.95-6.59-22.49-6.59-22.49,0,0,2.07-19.76-3.59-21.42-5.64-1.65-12.61,5.15-12.61,5.15,0,0-8.66,9.64-12.81,21.93l-1.14.38s1.32-21.55-.18-26.46c-1.13-2.45-11.49-2.26-13.18,2.08-1.7,4.35-9.99,34.59-10.56,47.25,0,0-16.2,13.8-30.32,16.06-14.13,2.28-17.52-6.61-17.52-6.61,0,0,38.43-10.77,37.11-41.58-1.31-30.8-30.99-19.4-34.34-16.88-3.25,2.45-20.6,12.94-25.65,42.01-.17.98-.47,5.3-.47,5.3,0,0-14.88,10-23.17,12.65,0,0,23.17-39.12-5.08-56.88-7.94-4.8-14.87-.38-18.99,3.67-2.53,2.49,34.24-37.87,25.76-73.98-4.03-17.18-12.6-19.03-20.45-16.24-11.93,4.72-16.45,11.71-16.45,11.71,0,0-15.46,22.5-19.04,55.95-3.58,33.44-8.85,73.89-8.85,73.89,0,0-7.35,7.18-14.13,7.56-6.79.37-3.77-20.23-3.77-20.23,0,0,5.27-31.36,4.91-36.66-.39-5.29-.76-8.12-6.98-10.01-6.22-1.9-13,6.04-13,6.04,0,0-17.88,27.21-19.39,31.36l-.96,1.71-.93-1.15s12.61-37.04.57-37.6c-12.06-.57-19.97,13.23-19.97,13.23,0,0-13.76,23.06-14.32,25.7l-.93-1.13s5.64-26.83,4.52-33.46c-1.14-6.61-7.35-5.29-7.35-5.29,0,0-7.91-.95-9.99,4.16-2.07,5.11-3.78,33.82-10.28,45.15,0,0-10.06,17-33.06,18.91-12.99.2-11.66-8.26-11.66-8.26,0,0,47.66-16.37,34.66-48.68-5.84-8.32-12.61-10.93-22.22-10.75-9.62.2-21.53,6.07-29.25,23.46-3.7,8.28-5.03,16.17-5.8,22.11,0,0-8.33,1.72-12.85-2.06-4.53-3.78-6.85,0-6.85,0,0,0-7.76,9.93-.04,12.94,7.73,3.03,19.78,4.44,19.78,4.44,1.83,8.58,6.71,16.2,13.74,21.45,14.13,10.77,41.24-.99,41.24-.99l11.11-6.25s.38,10.23,8.48,11.72c8.1,1.5,11.49-.02,25.62-34.42,8.29-17.58,8.86-16.63,8.86-16.63.93-.2-5.46,33.44-3.02,42.51,2.45,9.09,13.18,8.14,13.18,8.14,0,0,5.84,1.13,10.55-15.51,4.71-16.63,13.76-34.96,13.76-34.96,1.12,0-2.83,34.39,3.19,45.36,6.03,10.97,21.67,3.68,21.67,3.68,0,0,10.93-5.52,12.63-7.23,0,0,12.96,11.08,31.25,9.07,40.89-8.08,55.44-18.99,55.44-18.99,0,0,7.02,17.86,28.79,19.52,24.85,1.88,38.43-13.8,38.43-13.8,0,0-.2,10.2,8.47,13.8,8.68,3.59,14.51-16.61,14.51-16.61l14.5-40.1c1.32,0,2.07,26.07,16.4,30.23,14.31,4.16,32.96-9.74,32.96-9.74,0,0,4.52-2.5,3.77-10.05-.76-7.57-7.54-4.74-7.54-4.74ZM63.86,106.91c5.08,4.91,3.2,15.49-6.41,22.1-9.6,6.63-13.94,5.3-13.94,5.3.57-22.49,15.28-32.33,20.35-27.4ZM251.3,29.24c3.2,17.01-28.06,67.66-28.06,67.66.37-11.34,11.48-49.7,11.48-49.7,0,0,13.36-34.96,16.58-17.96h0Zm-30.9,129.08s-2.45-8.32,4.52-31.55c6.98-23.25,23.36-14.18,23.36-14.18,0,0,11.3,8.69,2.45,31.94-8.85,23.24-30.33,13.8-30.33,13.8Zm95.32-45.54c7.72-14.17,13.75-6.43,13.75-6.43,0,0,6.59,7.18-.94,17.96-7.54,10.77-18.46,10.02-18.46,10.02,0,0-2.07-7.38,5.65-21.54Z"/>
        <path class="cls-2" d="m392.82,170.13v-2.71h1.71c.24,0,.47.03.72.05.25.03.49.1.69.19.21.09.38.21.5.38.14.16.2.39.2.67,0,.63-.18,1.04-.56,1.2-.46.18-.96.26-1.45.24h-1.81Zm-2.04-4.31v10.32h2.04v-4.41h1.27l2.51,4.41h2.15l-2.76-4.51c.36-.04.72-.11,1.06-.23.33-.11.62-.27.85-.49.25-.21.43-.49.58-.83.16-.39.23-.8.22-1.22,0-1.12-.35-1.91-1.05-2.36-.7-.46-1.7-.69-3-.69h-3.88Zm-3.27,5.17c0-1.06.17-2.02.54-2.9.36-.87.85-1.63,1.47-2.27.63-.66,1.4-1.18,2.24-1.53.84-.35,1.75-.53,2.67-.52.91,0,1.82.17,2.66.52.84.35,1.61.87,2.24,1.53,1.33,1.39,2.07,3.25,2.04,5.18,0,1.06-.19,2.02-.54,2.92-.35.85-.86,1.63-1.49,2.3-.63.66-1.39,1.18-2.24,1.54-.84.35-1.75.53-2.66.52-.96,0-1.86-.18-2.72-.54-.83-.35-1.57-.87-2.19-1.51-.64-.66-1.14-1.45-1.48-2.3-.37-.93-.55-1.92-.54-2.92h0Zm-2.52,0c0,1.42.27,2.69.78,3.82.53,1.15,1.21,2.12,2.08,2.92.87.8,1.88,1.42,3.02,1.84,1.14.43,2.33.64,3.57.64s2.45-.22,3.58-.64c1.14-.43,2.14-1.04,3.02-1.84.87-.81,1.56-1.77,2.08-2.92.51-1.13.76-2.4.76-3.82s-.25-2.66-.76-3.79c-.49-1.09-1.19-2.08-2.07-2.89-.88-.82-1.91-1.45-3.03-1.86-1.14-.44-2.33-.65-3.58-.65-2.43,0-4.78.88-6.59,2.51-.92.85-1.65,1.89-2.14,3.04-.49,1.15-.74,2.4-.71,3.65Z"/>
      </g>
      <g>
        <path class="cls-1" d="m21.61,137.5c0-20.63,12.23-49.47,37.24-49.47,13.6,0,24,9.04,24,22.82,0,15.06-15.7,31.21-36.96,37.05,3.74,6.66,6.84,8.31,11.5,8.31,14.6,0,33.4-12.96,42.89-22.18l11.77,12.23c-5.38,5.57-11.04,10.4-17.07,14.69-10.5,7.3-24.37,14.6-39.06,14.6-22.91,0-34.32-17.89-34.32-38.06Zm44.45-22.63c0-5.48-2.28-9.4-5.2-9.4-15.61,0-17.07,19.07-17.07,27.2,8.67,0,22.27-10.13,22.27-17.8Z"/>
        <path class="cls-1" d="m131.33,137.87c.64-4.84,1.46-10.13,2.46-15.7h-1.37c-2.92,3.65-6.48,13.14-23.27,47-2.46,5.02-5.66,6.39-9.58,6.39-9.95,0-11.59-9.31-11.59-19.07,0-15.06,5.84-48.19,9.49-59.6,2.37-7.67,3.92-8.94,9.86-8.94,9.31,0,9.67.73,9.67,8.31,0,4.11-.82,11.13-1.83,17.25-.55,3.56-1.1,7.3-1.73,11.13l1,1.1c.55-.73,10.5-19.26,17.71-29.11,3.56-5.02,7.21-8.67,12.69-8.67,5.11,0,9.31,3.1,9.31,8.58,0,9.49-2.74,16.79-4.38,24.73-.64,2.83-.64,3.1-.64,3.38l1,1.1c.46-.64,11.32-19.17,18.62-29.11,3.56-4.84,6.66-8.67,11.77-8.67,5.75,0,10.22,3.1,10.22,8.58,0,16.88-4.2,29.3-4.2,46.09,0,6.57,1.92,11.13,4.38,11.13,5.02,0,11.59-4.56,16.61-9.4,3.01-2.83,5.93-5.93,8.85-9.49l1.55,21.54c-10.77,8.58-20.17,19.17-38.06,19.17-8.76,0-11.68-12.14-11.68-28.47,0-7.67.55-16.43,1.55-25.19h-1.37l-18.53,47.18c-3.19,5.11-6.94,6.48-12.05,6.48-7.67,0-8.94-9.49-8.94-17.07,0-3.1,1.28-12.41,2.46-20.63Z"/>
        <path class="cls-1" d="m236.47,102.09c6.84-8.49,12.23-14.15,17.8-14.15,14.24,0,22.72,13.6,22.72,28.38,0,12.32-1.55,21.81-8.76,32.95,8.85-5.2,17.8-9.31,27.47-18.98l7.03,15.06c-13.42,12.14-26.1,17.52-43.26,21.45-2.1,2.1-6.02,4.2-9.58,5.93-2.01,1-4.2,1.92-6.48,2.83h-2.28c-10.31,0-20.9-3.38-29.2-6.94-4.84-2.01-9.4-4.29-13.78-6.94.18-4.93.55-10.5,1.1-16.7,1-10.68,2.56-25.37,5.48-43.26C210.55,65.95,225.06.33,249.79.33c18.53,0,21.36,13.51,21.36,30.03,0,23.09-19.17,50.1-36.14,70.73l1.46,1Zm-12.05,29.66c-1.1,6.57-1.83,12.14-2.28,16.43-.27,2.46-.46,4.75-.64,6.85,2.01.64,4.02,1.09,6.02,1.55,3.56.73,7.58,1.46,11.13,1.46,12.59,0,17.89-23.91,17.89-37.88,0-6.02-2.28-11.41-11.86-11.41-8.49,0-17.61,6.75-20.26,23Zm24.55-113.9c-10.04,0-21.63,59.96-24.55,76.02,9.95-19.17,27.38-42.8,29.2-68.72,0-1-.55-7.3-4.65-7.3Z"/>
        <path class="cls-1" d="m287.13,137.5c0-20.63,12.23-49.47,37.24-49.47,13.6,0,24,9.04,24,22.82,0,15.06-15.7,31.21-36.96,37.05,3.74,6.66,6.85,8.31,11.5,8.31,14.6,0,33.4-12.96,42.89-22.18l11.77,12.23c-5.38,5.57-11.04,10.4-17.07,14.69-10.5,7.3-24.37,14.6-39.06,14.6-22.91,0-34.32-17.89-34.32-38.06Zm44.45-22.63c0-5.48-2.28-9.4-5.2-9.4-15.61,0-17.07,19.07-17.07,27.2,8.67,0,22.27-10.13,22.27-17.8Z"/>
        <path class="cls-1" d="m369.18,94.15c1.92-5.29,3.47-6.21,9.04-6.21,6.3,0,6.57.73,6.57,8.31,0,4.47-.09,11.41.18,17.61h1c4.84-9.77,11.77-25.92,25.1-25.92,4.75,0,8.94,3.19,8.94,8.58,0,4.2-2.92,15.88-2.92,20.9,0,8.76,3.65,11.41,7.48,11.41,5.48,0,11.68-2.92,16.52-5.93,2.83-1.73,5.66-3.74,8.4-6.02l-1.37,21.36c-6.3,4.11-16.34,11.04-26.47,11.04-18.16,0-21.36-16.34-23.27-31.58h-1.46l-16.34,45.54c-3.38,9.4-5.84,12.32-10.31,12.32-9.95,0-11.59-9.31-11.59-19.07,0-15.97,5.84-50.47,10.5-62.33Z"/>
      </g>
    </g>
  </g>
</svg>