<?xml version="1.0" encoding="UTF-8"?>
<svg id="Layer_2" data-name="Layer 2" xmlns="http://www.w3.org/2000/svg" viewBox="0 0 428.59 175.89">
  <defs>
    <style>
      .cls-1 {
        fill: none;
        stroke: #000;
        stroke-width: .66px;
      }
    </style>
  </defs>
  <g id="Layer_5" data-name="Layer 5">
    <g>
      <path class="cls-1" d="m.33,137.5c0-20.63,12.23-49.47,37.24-49.47,13.6,0,24,9.04,24,22.82,0,15.06-15.7,31.21-36.96,37.05,3.74,6.66,6.84,8.31,11.5,8.31,14.6,0,33.4-12.96,42.89-22.18l11.77,12.23c-5.38,5.57-11.04,10.4-17.07,14.69-10.5,7.3-24.37,14.6-39.06,14.6C11.74,175.56.33,157.67.33,137.5Zm44.45-22.63c0-5.48-2.28-9.4-5.2-9.4-15.61,0-17.07,19.07-17.07,27.2,8.67,0,22.27-10.13,22.27-17.8Z"/>
      <path class="cls-1" d="m110.05,137.87c.64-4.84,1.46-10.13,2.46-15.7h-1.37c-2.92,3.65-6.48,13.14-23.27,47-2.46,5.02-5.66,6.39-9.58,6.39-9.95,0-11.59-9.31-11.59-19.07,0-15.06,5.84-48.19,9.49-59.6,2.37-7.67,3.92-8.94,9.86-8.94,9.31,0,9.67.73,9.67,8.31,0,4.11-.82,11.13-1.83,17.25-.55,3.56-1.1,7.3-1.73,11.13l1,1.1c.55-.73,10.5-19.26,17.71-29.11,3.56-5.02,7.21-8.67,12.69-8.67,5.11,0,9.31,3.1,9.31,8.58,0,9.49-2.74,16.79-4.38,24.73-.64,2.83-.64,3.1-.64,3.38l1,1.1c.46-.64,11.32-19.17,18.62-29.11,3.56-4.84,6.66-8.67,11.77-8.67,5.75,0,10.22,3.1,10.22,8.58,0,16.88-4.2,29.3-4.2,46.09,0,6.57,1.92,11.13,4.38,11.13,5.02,0,11.59-4.56,16.61-9.4,3.01-2.83,5.93-5.93,8.85-9.49l1.55,21.54c-10.77,8.58-20.17,19.17-38.06,19.17-8.76,0-11.68-12.14-11.68-28.47,0-7.67.55-16.43,1.55-25.19h-1.37l-18.53,47.18c-3.19,5.11-6.94,6.48-12.05,6.48-7.67,0-8.94-9.49-8.94-17.07,0-3.1,1.28-12.41,2.46-20.63Z"/>
      <path class="cls-1" d="m215.19,102.09c6.84-8.49,12.23-14.15,17.8-14.15,14.24,0,22.72,13.6,22.72,28.38,0,12.32-1.55,21.81-8.76,32.95,8.85-5.2,17.8-9.31,27.47-18.98l7.03,15.06c-13.42,12.14-26.1,17.52-43.26,21.45-2.1,2.1-6.02,4.2-9.58,5.93-2.01,1-4.2,1.92-6.48,2.83h-2.28c-10.31,0-20.9-3.38-29.2-6.94-4.84-2.01-9.4-4.29-13.78-6.94.18-4.93.55-10.5,1.1-16.7,1-10.68,2.56-25.37,5.48-43.26C189.27,65.95,203.78.33,228.51.33c18.53,0,21.36,13.51,21.36,30.03,0,23.09-19.17,50.1-36.14,70.73l1.46,1Zm-12.05,29.66c-1.1,6.57-1.83,12.14-2.28,16.43-.27,2.46-.46,4.75-.64,6.85,2.01.64,4.02,1.09,6.02,1.55,3.56.73,7.58,1.46,11.13,1.46,12.59,0,17.89-23.91,17.89-37.88,0-6.02-2.28-11.41-11.86-11.41-8.49,0-17.61,6.75-20.26,23Zm24.55-113.9c-10.04,0-21.63,59.96-24.55,76.02,9.95-19.17,27.38-42.8,29.2-68.72,0-1-.55-7.3-4.65-7.3Z"/>
      <path class="cls-1" d="m265.85,137.5c0-20.63,12.23-49.47,37.24-49.47,13.6,0,24,9.04,24,22.82,0,15.06-15.7,31.21-36.96,37.05,3.74,6.66,6.85,8.31,11.5,8.31,14.6,0,33.4-12.96,42.89-22.18l11.77,12.23c-5.38,5.57-11.04,10.4-17.07,14.69-10.5,7.3-24.37,14.6-39.06,14.6-22.91,0-34.32-17.89-34.32-38.06Zm44.45-22.63c0-5.48-2.28-9.4-5.2-9.4-15.61,0-17.07,19.07-17.07,27.2,8.67,0,22.27-10.13,22.27-17.8Z"/>
      <path class="cls-1" d="m347.9,94.15c1.92-5.29,3.47-6.21,9.04-6.21,6.3,0,6.57.73,6.57,8.31,0,4.47-.09,11.41.18,17.61h1c4.84-9.77,11.77-25.92,25.1-25.92,4.75,0,8.94,3.19,8.94,8.58,0,4.2-2.92,15.88-2.92,20.9,0,8.76,3.65,11.41,7.48,11.41,5.48,0,11.68-2.92,16.52-5.93,2.83-1.73,5.66-3.74,8.4-6.02l-1.37,21.36c-6.3,4.11-16.34,11.04-26.47,11.04-18.16,0-21.36-16.34-23.27-31.58h-1.46l-16.34,45.54c-3.38,9.4-5.84,12.32-10.31,12.32-9.95,0-11.59-9.31-11.59-19.07,0-15.97,5.84-50.47,10.5-62.33Z"/>
    </g>
  </g>
</svg>