<?xml version="1.0" encoding="UTF-8"?>
<svg id="Layer_2" data-name="Layer 2" xmlns="http://www.w3.org/2000/svg" viewBox="0 0 448.8 173.95" width="449"
  height="174">
  <defs>
    <style>
      .cls-1 {
        fill: #e04e39;
        stroke-width: 0px;
      }
    </style>
  </defs>
  <g id="Layer_5" data-name="Layer 5">
    <g id="old">
      <path class="cls-1"
        d="m441.18,119.57s-10.92,8.49-20.53,7.54c-9.61-.95-6.59-22.49-6.59-22.49,0,0,2.07-19.76-3.59-21.42-5.64-1.65-12.61,5.15-12.61,5.15,0,0-8.66,9.64-12.81,21.93l-1.14.38s1.32-21.55-.18-26.46c-1.13-2.45-11.49-2.26-13.18,2.08-1.7,4.35-9.99,34.59-10.56,47.25,0,0-16.2,13.8-30.32,16.06-14.13,2.28-17.52-6.61-17.52-6.61,0,0,38.43-10.77,37.11-41.58-1.31-30.8-30.99-19.4-34.34-16.88-3.25,2.45-20.6,12.94-25.65,42.01-.17.98-.47,5.3-.47,5.3,0,0-14.88,10-23.17,12.65,0,0,23.17-39.12-5.08-56.88-7.94-4.8-14.87-.38-18.99,3.67-2.53,2.49,34.24-37.87,25.76-73.98C263.27.11,254.71-1.73,246.85,1.06c-11.93,4.72-16.45,11.71-16.45,11.71,0,0-15.46,22.5-19.04,55.95-3.58,33.44-8.85,73.89-8.85,73.89,0,0-7.35,7.18-14.13,7.56-6.79.37-3.77-20.23-3.77-20.23,0,0,5.27-31.36,4.91-36.66-.39-5.29-.76-8.12-6.98-10.01-6.22-1.9-13,6.04-13,6.04,0,0-17.88,27.21-19.39,31.36l-.96,1.71-.93-1.15s12.61-37.04.57-37.6c-12.06-.57-19.97,13.23-19.97,13.23,0,0-13.76,23.06-14.32,25.7l-.93-1.13s5.64-26.83,4.52-33.46c-1.14-6.61-7.35-5.29-7.35-5.29,0,0-7.91-.95-9.99,4.16-2.07,5.11-3.78,33.82-10.28,45.15,0,0-10.06,17-33.06,18.91-12.99.2-11.66-8.26-11.66-8.26,0,0,47.66-16.37,34.66-48.68-5.84-8.32-12.61-10.93-22.22-10.75-9.62.2-21.53,6.07-29.25,23.46-3.7,8.28-5.03,16.17-5.8,22.11,0,0-8.33,1.72-12.85-2.06-4.53-3.78-6.85,0-6.85,0,0,0-7.76,9.93-.04,12.94,7.73,3.03,19.78,4.44,19.78,4.44,1.83,8.58,6.71,16.2,13.74,21.45,14.13,10.77,41.24-.99,41.24-.99l11.11-6.25s.38,10.23,8.48,11.72c8.1,1.5,11.49-.02,25.62-34.42,8.29-17.58,8.86-16.63,8.86-16.63.93-.2-5.46,33.44-3.02,42.51,2.45,9.09,13.18,8.14,13.18,8.14,0,0,5.84,1.13,10.55-15.51,4.71-16.63,13.76-34.96,13.76-34.96,1.12,0-2.83,34.39,3.19,45.36,6.03,10.97,21.67,3.68,21.67,3.68,0,0,10.93-5.52,12.63-7.23,0,0,12.96,11.08,31.25,9.07,40.89-8.08,55.44-18.99,55.44-18.99,0,0,7.02,17.86,28.79,19.52,24.85,1.88,38.43-13.8,38.43-13.8,0,0-.2,10.2,8.47,13.8,8.68,3.59,14.51-16.61,14.51-16.61l14.5-40.1c1.32,0,2.07,26.07,16.4,30.23,14.31,4.16,32.96-9.74,32.96-9.74,0,0,4.52-2.5,3.77-10.05-.76-7.57-7.54-4.74-7.54-4.74ZM63.86,100.65c5.08,4.91,3.2,15.49-6.41,22.1-9.6,6.63-13.94,5.3-13.94,5.3.57-22.49,15.28-32.33,20.35-27.4ZM251.3,22.98c3.2,17.01-28.06,67.66-28.06,67.66.37-11.34,11.48-49.7,11.48-49.7,0,0,13.36-34.96,16.58-17.96h0Zm-30.9,129.08s-2.45-8.32,4.52-31.55c6.98-23.25,23.36-14.18,23.36-14.18,0,0,11.3,8.69,2.45,31.94-8.85,23.24-30.33,13.8-30.33,13.8Zm95.32-45.54c7.72-14.17,13.75-6.43,13.75-6.43,0,0,6.59,7.18-.94,17.96-7.54,10.77-18.46,10.02-18.46,10.02,0,0-2.07-7.38,5.65-21.54Z" />
      <path class="cls-1"
        d="m392.82,163.87v-2.71h1.71c.24,0,.47.03.72.05.25.03.49.1.69.19.21.09.38.21.5.38.14.16.2.39.2.67,0,.63-.18,1.04-.56,1.2-.46.18-.96.26-1.45.24h-1.81Zm-2.04-4.31v10.32h2.04v-4.41h1.27l2.51,4.41h2.15l-2.76-4.51c.36-.04.72-.11,1.06-.23.33-.11.62-.27.85-.49.25-.21.43-.49.58-.83.16-.39.23-.8.22-1.22,0-1.12-.35-1.91-1.05-2.36-.7-.46-1.7-.69-3-.69h-3.88Zm-3.27,5.17c0-1.06.17-2.02.54-2.9.36-.87.85-1.63,1.47-2.27.63-.66,1.4-1.18,2.24-1.53.84-.35,1.75-.53,2.67-.52.91,0,1.82.17,2.66.52.84.35,1.61.87,2.24,1.53,1.33,1.39,2.07,3.25,2.04,5.18,0,1.06-.19,2.02-.54,2.92-.35.85-.86,1.63-1.49,2.3-.63.66-1.39,1.18-2.24,1.54-.84.35-1.75.53-2.66.52-.96,0-1.86-.18-2.72-.54-.83-.35-1.57-.87-2.19-1.51-.64-.66-1.14-1.45-1.48-2.3-.37-.93-.55-1.92-.54-2.92h0Zm-2.52,0c0,1.42.27,2.69.78,3.82.53,1.15,1.21,2.12,2.08,2.92.87.8,1.88,1.42,3.02,1.84,1.14.43,2.33.64,3.57.64s2.45-.22,3.58-.64c1.14-.43,2.14-1.04,3.02-1.84.87-.81,1.56-1.77,2.08-2.92.51-1.13.76-2.4.76-3.82s-.25-2.66-.76-3.79c-.49-1.09-1.19-2.08-2.07-2.89-.88-.82-1.91-1.45-3.03-1.86-1.14-.44-2.33-.65-3.58-.65-2.43,0-4.78.88-6.59,2.51-.92.85-1.65,1.89-2.14,3.04-.49,1.15-.74,2.4-.71,3.65Z" />
    </g>
  </g>
</svg>
